# Blender 3.6.1
# www.blender.org
mtllib Chip.mtl
o Poker_chip
v 1.036540 0.017676 -0.000000
v 1.036540 0.068260 -0.000000
v 1.766683 0.009467 -0.237238
v 1.764832 0.004994 -0.236636
v 1.760434 0.003310 -0.235207
v 1.657636 0.009467 -0.451253
v 1.656062 0.004994 -0.450109
v 1.652321 0.003310 -0.447391
v 1.487793 0.009467 -0.621096
v 1.486649 0.004994 -0.619522
v 1.483931 0.003310 -0.615780
v 1.273778 0.009467 -0.730142
v 1.273177 0.004994 -0.728292
v 1.271747 0.003310 -0.723893
v 1.036540 0.009467 -0.767717
v 1.036540 0.004994 -0.765771
v 1.036540 0.003310 -0.761146
v 0.799303 0.009467 -0.730142
v 0.799904 0.004994 -0.728292
v 0.801333 0.003310 -0.723893
v 0.585288 0.009467 -0.621096
v 0.586431 0.004994 -0.619522
v 0.589150 0.003310 -0.615780
v 0.415444 0.009467 -0.451253
v 0.417018 0.004994 -0.450109
v 0.420760 0.003310 -0.447390
v 0.306398 0.009467 -0.237237
v 0.308249 0.004994 -0.236636
v 0.312647 0.003310 -0.235207
v 0.268824 0.009467 -0.000000
v 0.270769 0.004994 -0.000000
v 0.275394 0.003310 -0.000000
v 0.306398 0.009467 0.237237
v 0.308249 0.004994 0.236636
v 0.312647 0.003310 0.235207
v 0.415445 0.009467 0.451252
v 0.417019 0.004994 0.450109
v 0.420760 0.003310 0.447390
v 0.585288 0.009467 0.621096
v 0.586431 0.004994 0.619522
v 0.589150 0.003310 0.615780
v 0.799303 0.009467 0.730142
v 0.799904 0.004994 0.728292
v 0.801333 0.003310 0.723893
v 1.036540 0.009467 0.767717
v 1.036540 0.004994 0.765771
v 1.036540 0.003310 0.761146
v 1.273778 0.009467 0.730142
v 1.273176 0.004994 0.728292
v 1.271747 0.003310 0.723893
v 1.487793 0.009467 0.621096
v 1.486649 0.004994 0.619522
v 1.483931 0.003310 0.615780
v 1.657636 0.009467 0.451252
v 1.656062 0.004994 0.450109
v 1.652320 0.003310 0.447390
v 1.766682 0.009467 0.237237
v 1.764832 0.004994 0.236636
v 1.760433 0.003310 0.235207
v 1.804257 0.009467 -0.000000
v 1.802311 0.004994 -0.000000
v 1.797686 0.003310 -0.000000
v 1.766683 0.076469 -0.237238
v 1.764832 0.080942 -0.236636
v 1.760434 0.082626 -0.235207
v 1.657636 0.076469 -0.451253
v 1.656062 0.080942 -0.450109
v 1.652321 0.082626 -0.447391
v 1.487793 0.076469 -0.621096
v 1.486649 0.080942 -0.619522
v 1.483931 0.082626 -0.615780
v 1.273778 0.076469 -0.730142
v 1.273177 0.080942 -0.728292
v 1.271747 0.082626 -0.723893
v 1.036540 0.076469 -0.767717
v 1.036540 0.080942 -0.765771
v 1.036540 0.082626 -0.761146
v 0.799303 0.076469 -0.730142
v 0.799904 0.080942 -0.728292
v 0.801333 0.082626 -0.723893
v 0.585288 0.076469 -0.621096
v 0.586431 0.080942 -0.619522
v 0.589150 0.082626 -0.615780
v 0.415444 0.076469 -0.451253
v 0.417018 0.080942 -0.450109
v 0.420760 0.082626 -0.447390
v 0.306398 0.076469 -0.237237
v 0.308249 0.080942 -0.236636
v 0.312647 0.082626 -0.235207
v 0.268824 0.076469 -0.000000
v 0.270769 0.080942 -0.000000
v 0.275394 0.082626 -0.000000
v 0.306398 0.076469 0.237237
v 0.308249 0.080942 0.236636
v 0.312647 0.082626 0.235207
v 0.415445 0.076469 0.451252
v 0.417019 0.080942 0.450109
v 0.420760 0.082626 0.447390
v 0.585288 0.076469 0.621096
v 0.586431 0.080942 0.619522
v 0.589150 0.082626 0.615780
v 0.799303 0.076469 0.730142
v 0.799904 0.080942 0.728292
v 0.801333 0.082626 0.723893
v 1.036540 0.076469 0.767717
v 1.036540 0.080942 0.765771
v 1.036540 0.082626 0.761146
v 1.273778 0.076469 0.730142
v 1.273176 0.080942 0.728292
v 1.271747 0.082626 0.723893
v 1.487793 0.076469 0.621096
v 1.486649 0.080942 0.619522
v 1.483931 0.082626 0.615780
v 1.657636 0.076469 0.451252
v 1.656062 0.080942 0.450109
v 1.652320 0.082626 0.447390
v 1.766682 0.076469 0.237237
v 1.764832 0.080942 0.236636
v 1.760433 0.082626 0.235207
v 1.804257 0.076469 -0.000000
v 1.802311 0.080942 -0.000000
v 1.797686 0.082626 -0.000000
v 1.548726 0.014908 -0.166419
v 1.544519 0.016993 -0.165052
v 1.542960 0.021554 -0.164546
v 1.472231 0.014908 -0.316548
v 1.468653 0.016993 -0.313948
v 1.467327 0.021554 -0.312985
v 1.353088 0.014908 -0.435691
v 1.350488 0.016993 -0.432113
v 1.349525 0.021554 -0.430786
v 1.202959 0.014908 -0.512185
v 1.201593 0.016993 -0.507979
v 1.201086 0.021554 -0.506420
v 1.036540 0.014908 -0.538544
v 1.036540 0.016993 -0.534121
v 1.036540 0.021554 -0.532481
v 0.870121 0.014908 -0.512185
v 0.871488 0.016993 -0.507979
v 0.871995 0.021554 -0.506420
v 0.719992 0.014908 -0.435691
v 0.722592 0.016993 -0.432113
v 0.723556 0.021554 -0.430786
v 0.600849 0.014908 -0.316548
v 0.604428 0.016993 -0.313948
v 0.605754 0.021554 -0.312985
v 0.524355 0.014908 -0.166419
v 0.528562 0.016993 -0.165052
v 0.530121 0.021554 -0.164546
v 0.497997 0.014908 -0.000000
v 0.502420 0.016993 -0.000000
v 0.504059 0.021554 -0.000000
v 0.524355 0.014908 0.166419
v 0.528562 0.016993 0.165052
v 0.530121 0.021554 0.164546
v 0.600850 0.014908 0.316548
v 0.604428 0.016993 0.313948
v 0.605754 0.021554 0.312984
v 0.719992 0.014908 0.435691
v 0.722592 0.016993 0.432112
v 0.723556 0.021554 0.430786
v 0.870121 0.014908 0.512185
v 0.871488 0.016993 0.507978
v 0.871995 0.021554 0.506419
v 1.036540 0.014908 0.538543
v 1.036540 0.016993 0.534121
v 1.036540 0.021554 0.532481
v 1.202959 0.014908 0.512185
v 1.201593 0.016993 0.507978
v 1.201086 0.021554 0.506419
v 1.353088 0.014908 0.435691
v 1.350488 0.016993 0.432112
v 1.349525 0.021554 0.430786
v 1.472231 0.014908 0.316548
v 1.468653 0.016993 0.313948
v 1.467326 0.021554 0.312984
v 1.548725 0.014908 0.166419
v 1.544519 0.016993 0.165052
v 1.542960 0.021554 0.164546
v 1.575083 0.014908 -0.000000
v 1.570661 0.016993 -0.000000
v 1.569021 0.021554 -0.000000
v 1.548726 0.071027 -0.166419
v 1.544519 0.068943 -0.165052
v 1.542960 0.064382 -0.164546
v 1.472231 0.071027 -0.316548
v 1.468653 0.068943 -0.313948
v 1.467327 0.064382 -0.312985
v 1.353088 0.071027 -0.435691
v 1.350488 0.068943 -0.432113
v 1.349525 0.064382 -0.430786
v 1.202959 0.071027 -0.512185
v 1.201593 0.068943 -0.507979
v 1.201086 0.064382 -0.506420
v 1.036540 0.071027 -0.538544
v 1.036540 0.068943 -0.534121
v 1.036540 0.064382 -0.532481
v 0.870121 0.071027 -0.512185
v 0.871488 0.068943 -0.507979
v 0.871995 0.064382 -0.506420
v 0.719992 0.071027 -0.435691
v 0.722592 0.068943 -0.432113
v 0.723556 0.064382 -0.430786
v 0.600849 0.071027 -0.316548
v 0.604428 0.068943 -0.313948
v 0.605754 0.064382 -0.312985
v 0.524355 0.071027 -0.166419
v 0.528562 0.068943 -0.165052
v 0.530121 0.064382 -0.164546
v 0.497997 0.071027 -0.000000
v 0.502420 0.068943 -0.000000
v 0.504059 0.064382 -0.000000
v 0.524355 0.071027 0.166419
v 0.528562 0.068943 0.165052
v 0.530121 0.064382 0.164546
v 0.600850 0.071027 0.316548
v 0.604428 0.068943 0.313948
v 0.605754 0.064382 0.312984
v 0.719992 0.071027 0.435691
v 0.722592 0.068943 0.432112
v 0.723556 0.064382 0.430786
v 0.870121 0.071027 0.512185
v 0.871488 0.068943 0.507978
v 0.871995 0.064382 0.506419
v 1.036540 0.071027 0.538543
v 1.036540 0.068943 0.534121
v 1.036540 0.064382 0.532481
v 1.202959 0.071027 0.512185
v 1.201593 0.068943 0.507978
v 1.201086 0.064382 0.506419
v 1.353088 0.071027 0.435691
v 1.350488 0.068943 0.432112
v 1.349525 0.064382 0.430786
v 1.472231 0.071027 0.316548
v 1.468653 0.068943 0.313948
v 1.467326 0.064382 0.312984
v 1.548725 0.071027 0.166419
v 1.544519 0.068943 0.165052
v 1.542960 0.064382 0.164546
v 1.575083 0.071027 -0.000000
v 1.570661 0.068943 -0.000000
v 1.569021 0.064382 -0.000000
v 1.492262 0.017676 -0.148073
v 1.496569 0.019462 -0.149472
v 1.498507 0.023837 -0.150102
v 1.424200 0.017676 -0.281651
v 1.427864 0.019462 -0.284313
v 1.429512 0.023837 -0.285511
v 1.318192 0.017676 -0.387660
v 1.320853 0.019462 -0.391323
v 1.322051 0.023837 -0.392972
v 1.184613 0.017676 -0.455721
v 1.186013 0.019462 -0.460028
v 1.186642 0.023837 -0.461966
v 1.036540 0.017676 -0.479174
v 1.036540 0.019462 -0.483702
v 1.036540 0.023837 -0.485740
v 0.888467 0.017676 -0.455721
v 0.887068 0.019462 -0.460028
v 0.886438 0.023837 -0.461966
v 0.754889 0.017676 -0.387660
v 0.752227 0.019462 -0.391323
v 0.751029 0.023837 -0.392972
v 0.648881 0.017676 -0.281651
v 0.645217 0.019462 -0.284313
v 0.643568 0.023837 -0.285511
v 0.580819 0.017676 -0.148073
v 0.576512 0.019462 -0.149472
v 0.574574 0.023837 -0.150102
v 0.557367 0.017676 -0.000000
v 0.552838 0.019462 -0.000000
v 0.550800 0.023837 -0.000000
v 0.580819 0.017676 0.148073
v 0.576512 0.019462 0.149472
v 0.574574 0.023837 0.150102
v 0.648881 0.017676 0.281651
v 0.645217 0.019462 0.284313
v 0.643568 0.023837 0.285511
v 0.754889 0.017676 0.387660
v 0.752227 0.019462 0.391323
v 0.751029 0.023837 0.392972
v 0.888467 0.017676 0.455721
v 0.887068 0.019462 0.460028
v 0.886438 0.023837 0.461966
v 1.036540 0.017676 0.479173
v 1.036540 0.019462 0.483702
v 1.036540 0.023837 0.485740
v 1.184613 0.017676 0.455721
v 1.186012 0.019462 0.460028
v 1.186642 0.023837 0.461966
v 1.318191 0.017676 0.387660
v 1.320853 0.019462 0.391323
v 1.322051 0.023837 0.392972
v 1.424200 0.017676 0.281651
v 1.427863 0.019462 0.284313
v 1.429512 0.023837 0.285511
v 1.492261 0.017676 0.148073
v 1.496568 0.019462 0.149472
v 1.498506 0.023837 0.150102
v 1.515714 0.017676 -0.000000
v 1.520242 0.019462 -0.000000
v 1.522280 0.023837 -0.000000
v 1.492262 0.068260 -0.148073
v 1.496569 0.066474 -0.149472
v 1.498507 0.062099 -0.150102
v 1.424200 0.068260 -0.281651
v 1.427864 0.066474 -0.284313
v 1.429512 0.062099 -0.285511
v 1.318192 0.068260 -0.387660
v 1.320853 0.066474 -0.391323
v 1.322051 0.062099 -0.392972
v 1.184613 0.068260 -0.455721
v 1.186013 0.066474 -0.460028
v 1.186642 0.062099 -0.461966
v 1.036540 0.068260 -0.479174
v 1.036540 0.066474 -0.483702
v 1.036540 0.062099 -0.485740
v 0.888467 0.068260 -0.455721
v 0.887068 0.066474 -0.460028
v 0.886438 0.062099 -0.461966
v 0.754889 0.068260 -0.387660
v 0.752227 0.066474 -0.391323
v 0.751029 0.062099 -0.392972
v 0.648881 0.068260 -0.281651
v 0.645217 0.066474 -0.284313
v 0.643568 0.062099 -0.285511
v 0.580819 0.068260 -0.148073
v 0.576512 0.066474 -0.149472
v 0.574574 0.062099 -0.150102
v 0.557367 0.068260 -0.000000
v 0.552838 0.066474 -0.000000
v 0.550800 0.062099 -0.000000
v 0.580819 0.068260 0.148073
v 0.576512 0.066474 0.149472
v 0.574574 0.062099 0.150102
v 0.648881 0.068260 0.281651
v 0.645217 0.066474 0.284313
v 0.643568 0.062099 0.285511
v 0.754889 0.068260 0.387660
v 0.752227 0.066474 0.391323
v 0.751029 0.062099 0.392972
v 0.888467 0.068260 0.455721
v 0.887068 0.066474 0.460028
v 0.886438 0.062099 0.461966
v 1.036540 0.068260 0.479173
v 1.036540 0.066474 0.483702
v 1.036540 0.062099 0.485740
v 1.184613 0.068260 0.455721
v 1.186012 0.066474 0.460028
v 1.186642 0.062099 0.461966
v 1.318191 0.068260 0.387660
v 1.320853 0.066474 0.391323
v 1.322051 0.062099 0.392972
v 1.424200 0.068260 0.281651
v 1.427863 0.066474 0.284313
v 1.429512 0.062099 0.285511
v 1.492261 0.068260 0.148073
v 1.496568 0.066474 0.149472
v 1.498506 0.062099 0.150102
v 1.515714 0.068260 -0.000000
v 1.520242 0.066474 -0.000000
v 1.522280 0.062099 -0.000000
v 1.537822 0.040861 -0.162876
v 1.542028 0.038777 -0.164243
v 1.543587 0.034215 -0.164750
v 1.467860 0.034215 -0.313372
v 1.466534 0.038777 -0.312409
v 1.462956 0.040861 -0.309809
v 1.499141 0.036642 -0.150308
v 1.501145 0.041014 -0.150959
v 1.505541 0.042629 -0.152387
v 1.435496 0.042629 -0.289858
v 1.431757 0.041014 -0.287142
v 1.430052 0.036642 -0.285903
v 1.349913 0.034215 -0.431320
v 1.348949 0.038777 -0.429994
v 1.346349 0.040861 -0.426416
v 1.326398 0.042629 -0.398955
v 1.323682 0.041014 -0.395217
v 1.322443 0.036642 -0.393512
v 1.201290 0.034215 -0.507047
v 1.200783 0.038777 -0.505488
v 1.199417 0.040861 -0.501281
v 1.188928 0.042629 -0.469000
v 1.187500 0.041014 -0.464605
v 1.186848 0.036642 -0.462601
v 1.036540 0.034215 -0.533141
v 1.036540 0.038777 -0.531502
v 1.036540 0.040861 -0.527079
v 1.036540 0.042629 -0.493136
v 1.036540 0.041014 -0.488515
v 1.036540 0.036642 -0.486408
v 0.871791 0.034215 -0.507047
v 0.872297 0.038777 -0.505488
v 0.873664 0.040861 -0.501281
v 0.884153 0.042629 -0.469000
v 0.885581 0.041014 -0.464605
v 0.886232 0.036642 -0.462601
v 0.723168 0.034215 -0.431320
v 0.724132 0.038777 -0.429994
v 0.726731 0.040861 -0.426416
v 0.746682 0.042629 -0.398955
v 0.749399 0.041014 -0.395217
v 0.750637 0.036642 -0.393512
v 0.605220 0.034215 -0.313372
v 0.606547 0.038777 -0.312409
v 0.610125 0.040861 -0.309809
v 0.637585 0.042629 -0.289858
v 0.641324 0.041014 -0.287142
v 0.643028 0.036642 -0.285903
v 0.529493 0.034215 -0.164749
v 0.531053 0.038777 -0.164243
v 0.535259 0.040861 -0.162876
v 0.567540 0.042629 -0.152387
v 0.571935 0.041014 -0.150959
v 0.573939 0.036642 -0.150308
v 0.503400 0.034215 -0.000000
v 0.505039 0.038777 -0.000000
v 0.509462 0.040861 -0.000000
v 0.543404 0.042629 -0.000000
v 0.548026 0.041014 -0.000000
v 0.550133 0.036642 -0.000000
v 0.529493 0.034215 0.164750
v 0.531053 0.038777 0.164243
v 0.535259 0.040861 0.162876
v 0.567540 0.042629 0.152387
v 0.571935 0.041014 0.150959
v 0.573939 0.036642 0.150308
v 0.605220 0.034215 0.313372
v 0.606547 0.038777 0.312409
v 0.610125 0.040861 0.309809
v 0.637585 0.042629 0.289858
v 0.641324 0.041014 0.287142
v 0.643029 0.036642 0.285903
v 0.723168 0.034215 0.431320
v 0.724132 0.038777 0.429994
v 0.726731 0.040861 0.426415
v 0.746682 0.042629 0.398956
v 0.749399 0.041014 0.395217
v 0.750637 0.036642 0.393512
v 0.871791 0.034215 0.507047
v 0.872297 0.038777 0.505488
v 0.873664 0.040861 0.501281
v 0.884153 0.042629 0.469000
v 0.885581 0.041014 0.464605
v 0.886232 0.036642 0.462601
v 1.036540 0.034215 0.533141
v 1.036540 0.038777 0.531501
v 1.036540 0.040861 0.527079
v 1.036540 0.042629 0.493136
v 1.036540 0.041014 0.488514
v 1.036540 0.036642 0.486407
v 1.201290 0.034215 0.507047
v 1.200783 0.038777 0.505488
v 1.199416 0.040861 0.501281
v 1.188928 0.042629 0.469000
v 1.187499 0.041014 0.464605
v 1.186848 0.036642 0.462601
v 1.349912 0.034215 0.431320
v 1.348949 0.038777 0.429994
v 1.346349 0.040861 0.426415
v 1.326398 0.042629 0.398956
v 1.323682 0.041014 0.395217
v 1.322443 0.036642 0.393512
v 1.467860 0.034215 0.313372
v 1.466534 0.038777 0.312409
v 1.462956 0.040861 0.309809
v 1.435496 0.042629 0.289858
v 1.431757 0.041014 0.287142
v 1.430052 0.036642 0.285903
v 1.543587 0.034215 0.164750
v 1.542028 0.038777 0.164243
v 1.537822 0.040861 0.162876
v 1.505540 0.042629 0.152387
v 1.501145 0.041014 0.150959
v 1.499141 0.036642 0.150308
v 1.569681 0.034215 -0.000000
v 1.568042 0.038777 -0.000000
v 1.563619 0.040861 -0.000000
v 1.529676 0.042629 -0.000000
v 1.525055 0.041014 -0.000000
v 1.522948 0.036642 -0.000000
v 1.543587 0.051721 -0.164750
v 1.542028 0.047159 -0.164243
v 1.537822 0.045075 -0.162876
v 1.462956 0.045075 -0.309809
v 1.466534 0.047159 -0.312409
v 1.467860 0.051721 -0.313372
v 1.430052 0.049294 -0.285903
v 1.431757 0.044922 -0.287142
v 1.435496 0.043306 -0.289858
v 1.505541 0.043306 -0.152387
v 1.501145 0.044922 -0.150959
v 1.499141 0.049294 -0.150308
v 1.346349 0.045075 -0.426416
v 1.348949 0.047159 -0.429994
v 1.349913 0.051721 -0.431320
v 1.322443 0.049294 -0.393512
v 1.323682 0.044922 -0.395217
v 1.326398 0.043306 -0.398955
v 1.199417 0.045075 -0.501281
v 1.200783 0.047159 -0.505488
v 1.201290 0.051721 -0.507047
v 1.186848 0.049294 -0.462601
v 1.187500 0.044922 -0.464605
v 1.188928 0.043306 -0.469000
v 1.036540 0.045075 -0.527079
v 1.036540 0.047159 -0.531502
v 1.036540 0.051721 -0.533141
v 1.036540 0.049294 -0.486408
v 1.036540 0.044922 -0.488515
v 1.036540 0.043306 -0.493136
v 0.873664 0.045075 -0.501281
v 0.872297 0.047159 -0.505488
v 0.871791 0.051721 -0.507047
v 0.886232 0.049294 -0.462601
v 0.885581 0.044922 -0.464605
v 0.884153 0.043306 -0.469000
v 0.726731 0.045075 -0.426416
v 0.724132 0.047159 -0.429994
v 0.723168 0.051721 -0.431320
v 0.750637 0.049294 -0.393512
v 0.749399 0.044922 -0.395217
v 0.746682 0.043306 -0.398955
v 0.610125 0.045075 -0.309809
v 0.606547 0.047159 -0.312409
v 0.605220 0.051721 -0.313372
v 0.643028 0.049294 -0.285903
v 0.641324 0.044922 -0.287142
v 0.637585 0.043306 -0.289858
v 0.535259 0.045075 -0.162876
v 0.531053 0.047159 -0.164243
v 0.529493 0.051721 -0.164749
v 0.573939 0.049294 -0.150308
v 0.571935 0.044922 -0.150959
v 0.567540 0.043306 -0.152387
v 0.509462 0.045075 -0.000000
v 0.505039 0.047159 -0.000000
v 0.503400 0.051721 -0.000000
v 0.550133 0.049294 -0.000000
v 0.548026 0.044922 -0.000000
v 0.543404 0.043306 -0.000000
v 0.535259 0.045075 0.162876
v 0.531053 0.047159 0.164243
v 0.529493 0.051721 0.164750
v 0.573939 0.049294 0.150308
v 0.571935 0.044922 0.150959
v 0.567540 0.043306 0.152387
v 0.610125 0.045075 0.309809
v 0.606547 0.047159 0.312409
v 0.605220 0.051721 0.313372
v 0.643029 0.049294 0.285903
v 0.641324 0.044922 0.287142
v 0.637585 0.043306 0.289858
v 0.726731 0.045075 0.426415
v 0.724132 0.047159 0.429994
v 0.723168 0.051721 0.431320
v 0.750637 0.049294 0.393512
v 0.749399 0.044922 0.395217
v 0.746682 0.043306 0.398956
v 0.873664 0.045075 0.501281
v 0.872297 0.047159 0.505488
v 0.871791 0.051721 0.507047
v 0.886232 0.049294 0.462601
v 0.885581 0.044922 0.464605
v 0.884153 0.043306 0.469000
v 1.036540 0.045075 0.527079
v 1.036540 0.047159 0.531501
v 1.036540 0.051721 0.533141
v 1.036540 0.049294 0.486407
v 1.036540 0.044922 0.488514
v 1.036540 0.043306 0.493136
v 1.199416 0.045075 0.501281
v 1.200783 0.047159 0.505488
v 1.201290 0.051721 0.507047
v 1.186848 0.049294 0.462601
v 1.187499 0.044922 0.464605
v 1.188928 0.043306 0.469000
v 1.346349 0.045075 0.426415
v 1.348949 0.047159 0.429994
v 1.349912 0.051721 0.431320
v 1.322443 0.049294 0.393512
v 1.323682 0.044922 0.395217
v 1.326398 0.043306 0.398956
v 1.462956 0.045075 0.309809
v 1.466534 0.047159 0.312409
v 1.467860 0.051721 0.313372
v 1.430052 0.049294 0.285903
v 1.431757 0.044922 0.287142
v 1.435496 0.043306 0.289858
v 1.537822 0.045075 0.162876
v 1.542028 0.047159 0.164243
v 1.543587 0.051721 0.164750
v 1.499141 0.049294 0.150308
v 1.501145 0.044922 0.150959
v 1.505540 0.043306 0.152387
v 1.563619 0.045075 -0.000000
v 1.568042 0.047159 -0.000000
v 1.569681 0.051721 -0.000000
v 1.522948 0.049294 -0.000000
v 1.525055 0.044922 -0.000000
v 1.529676 0.043306 -0.000000
vn -0.9496 -0.0544 0.3086
vn -0.8950 -0.3381 0.2908
vn -0.7614 -0.3381 0.5532
vn -0.8078 -0.0545 0.5869
vn -0.4054 -0.9046 0.1317
vn -0.1051 -0.9939 0.0341
vn -0.0894 -0.9939 0.0649
vn -0.3448 -0.9046 0.2505
vn -0.0123 -0.9999 0.0040
vn 0.3137 -0.9440 -0.1019
vn 0.2669 -0.9440 -0.1939
vn -0.0105 -0.9999 0.0076
vn 0.8567 -0.4342 -0.2784
vn 0.9383 -0.1635 -0.3049
vn 0.7981 -0.1635 -0.5799
vn 0.7288 -0.4342 -0.5295
vn -0.1050 0.9939 0.0341
vn -0.4054 0.9046 0.1317
vn -0.3448 0.9046 0.2505
vn -0.0894 0.9939 0.0649
vn -0.8950 0.3381 0.2908
vn -0.9496 0.0544 0.3086
vn -0.8078 0.0545 0.5869
vn -0.7614 0.3381 0.5532
vn -0.0105 0.9999 0.0076
vn 0.2670 0.9440 -0.1940
vn 0.3139 0.9440 -0.1020
vn -0.0123 0.9999 0.0040
vn 0.7288 0.4342 -0.5295
vn 0.7981 0.1635 -0.5799
vn 0.9383 0.1635 -0.3049
vn 0.8567 0.4342 -0.2784
vn 0.9507 -0.0262 -0.3089
vn 0.8087 -0.0262 -0.5876
vn 0.8088 0.0262 -0.5876
vn 0.9507 0.0262 -0.3089
vn 0.5876 -0.0262 -0.8087
vn 0.5876 0.0262 -0.8087
vn 0.3089 -0.0262 -0.9507
vn 0.3089 0.0262 -0.9507
vn -0.0000 -0.0262 -0.9997
vn -0.0000 0.0262 -0.9997
vn -0.3089 -0.0262 -0.9507
vn -0.3089 0.0262 -0.9507
vn -0.5876 -0.0262 -0.8087
vn -0.5876 0.0262 -0.8087
vn -0.8087 -0.0262 -0.5876
vn -0.8087 0.0262 -0.5876
vn -0.9507 -0.0262 -0.3089
vn -0.9507 0.0262 -0.3089
vn -0.9997 -0.0262 -0.0000
vn -0.9997 0.0262 -0.0000
vn -0.9507 -0.0262 0.3089
vn -0.9507 0.0262 0.3089
vn -0.8087 -0.0262 0.5876
vn -0.8087 0.0262 0.5876
vn -0.5876 -0.0262 0.8087
vn -0.5876 0.0262 0.8087
vn -0.3089 -0.0262 0.9507
vn -0.3089 0.0262 0.9507
vn -0.0000 -0.0262 0.9997
vn -0.0000 0.0262 0.9997
vn 0.3089 -0.0262 0.9507
vn 0.3089 0.0262 0.9507
vn 0.5876 -0.0262 0.8087
vn 0.5876 0.0262 0.8088
vn 0.8087 -0.0262 0.5876
vn 0.8087 0.0262 0.5876
vn 0.9507 -0.0262 0.3089
vn 0.9507 0.0262 0.3089
vn 0.9997 -0.0262 -0.0000
vn 0.9997 0.0262 -0.0000
vn 0.0072 -1.0000 -0.0052
vn 0.0085 -1.0000 -0.0028
vn -0.0000 -1.0000 -0.0000
vn 0.0052 -1.0000 -0.0072
vn 0.0027 -1.0000 -0.0085
vn -0.0000 -1.0000 -0.0089
vn -0.0028 -1.0000 -0.0085
vn -0.0052 -1.0000 -0.0072
vn -0.0072 -1.0000 -0.0053
vn -0.0085 -1.0000 -0.0028
vn -0.0089 -1.0000 -0.0000
vn -0.0085 -1.0000 0.0028
vn -0.0072 -1.0000 0.0053
vn -0.0052 -1.0000 0.0072
vn -0.0027 -1.0000 0.0085
vn -0.0000 -1.0000 0.0089
vn 0.0028 -1.0000 0.0085
vn 0.0053 -1.0000 0.0072
vn 0.0072 -1.0000 0.0052
vn 0.0085 -1.0000 0.0027
vn 0.0089 -1.0000 -0.0000
vn 0.0085 1.0000 -0.0027
vn 0.0072 1.0000 -0.0052
vn -0.0000 1.0000 -0.0000
vn 0.0052 1.0000 -0.0072
vn 0.0028 1.0000 -0.0085
vn -0.0000 1.0000 -0.0089
vn -0.0028 1.0000 -0.0085
vn -0.0052 1.0000 -0.0072
vn -0.0072 1.0000 -0.0053
vn -0.0085 1.0000 -0.0028
vn -0.0089 1.0000 -0.0000
vn -0.0085 1.0000 0.0028
vn -0.0072 1.0000 0.0053
vn -0.0052 1.0000 0.0072
vn -0.0028 1.0000 0.0085
vn -0.0000 1.0000 0.0089
vn 0.0028 1.0000 0.0085
vn 0.0052 1.0000 0.0072
vn 0.0072 1.0000 0.0052
vn 0.0085 1.0000 0.0028
vn 0.0089 1.0000 -0.0000
vn -0.0324 -0.9992 0.0235
vn -0.0381 -0.9992 0.0124
vn -0.0549 -0.9983 0.0178
vn -0.0467 -0.9983 0.0339
vn -0.0235 -0.9992 0.0324
vn -0.0339 -0.9983 0.0466
vn -0.0124 -0.9992 0.0381
vn -0.0178 -0.9983 0.0548
vn -0.0000 -0.9992 0.0400
vn -0.0000 -0.9983 0.0576
vn 0.0124 -0.9992 0.0381
vn 0.0178 -0.9983 0.0548
vn 0.0235 -0.9992 0.0324
vn 0.0339 -0.9983 0.0466
vn 0.0324 -0.9992 0.0235
vn 0.0467 -0.9983 0.0339
vn 0.0381 -0.9992 0.0124
vn 0.0549 -0.9983 0.0178
vn 0.0401 -0.9992 -0.0000
vn 0.0577 -0.9983 -0.0000
vn 0.0381 -0.9992 -0.0124
vn 0.0548 -0.9983 -0.0178
vn 0.0324 -0.9992 -0.0235
vn 0.0466 -0.9983 -0.0339
vn 0.0235 -0.9992 -0.0324
vn 0.0339 -0.9983 -0.0467
vn 0.0124 -0.9992 -0.0381
vn 0.0178 -0.9983 -0.0548
vn -0.0000 -0.9992 -0.0400
vn -0.0000 -0.9983 -0.0576
vn -0.0124 -0.9992 -0.0381
vn -0.0178 -0.9983 -0.0548
vn -0.0235 -0.9992 -0.0324
vn -0.0339 -0.9983 -0.0467
vn -0.0324 -0.9992 -0.0235
vn -0.0466 -0.9983 -0.0339
vn -0.0381 -0.9992 -0.0124
vn -0.0548 -0.9983 -0.0178
vn -0.0401 -0.9992 -0.0000
vn -0.0576 -0.9983 -0.0000
vn -0.0381 0.9992 0.0124
vn -0.0324 0.9992 0.0235
vn -0.0466 0.9983 0.0339
vn -0.0548 0.9983 0.0178
vn -0.0235 0.9992 0.0324
vn -0.0339 0.9983 0.0467
vn -0.0124 0.9992 0.0381
vn -0.0178 0.9983 0.0549
vn -0.0000 0.9992 0.0400
vn -0.0000 0.9983 0.0577
vn 0.0124 0.9992 0.0381
vn 0.0178 0.9983 0.0548
vn 0.0235 0.9992 0.0324
vn 0.0339 0.9983 0.0466
vn 0.0324 0.9992 0.0235
vn 0.0466 0.9983 0.0339
vn 0.0381 0.9992 0.0124
vn 0.0548 0.9983 0.0178
vn 0.0401 0.9992 -0.0000
vn 0.0577 0.9983 -0.0000
vn 0.0381 0.9992 -0.0124
vn 0.0548 0.9983 -0.0178
vn 0.0324 0.9992 -0.0235
vn 0.0466 0.9983 -0.0339
vn 0.0235 0.9992 -0.0324
vn 0.0339 0.9983 -0.0466
vn 0.0124 0.9992 -0.0381
vn 0.0178 0.9983 -0.0548
vn -0.0000 0.9992 -0.0400
vn -0.0000 0.9983 -0.0577
vn -0.0124 0.9992 -0.0381
vn -0.0178 0.9983 -0.0548
vn -0.0235 0.9992 -0.0324
vn -0.0339 0.9983 -0.0466
vn -0.0324 0.9992 -0.0235
vn -0.0466 0.9983 -0.0339
vn -0.0381 0.9992 -0.0124
vn -0.0549 0.9983 -0.0178
vn -0.0401 0.9992 -0.0000
vn -0.0577 0.9983 -0.0000
vn -0.0649 -0.9939 0.0894
vn -0.0076 -0.9999 0.0105
vn -0.0341 -0.9939 0.1050
vn -0.0040 -0.9999 0.0123
vn -0.0000 -0.9939 0.1104
vn -0.0000 -0.9999 0.0130
vn 0.0341 -0.9939 0.1050
vn 0.0040 -0.9999 0.0123
vn 0.0649 -0.9939 0.0894
vn 0.0076 -0.9999 0.0105
vn 0.0894 -0.9939 0.0649
vn 0.0105 -0.9999 0.0076
vn 0.1050 -0.9939 0.0341
vn 0.0123 -0.9999 0.0040
vn 0.1105 -0.9939 -0.0000
vn 0.0129 -0.9999 -0.0000
vn 0.1051 -0.9939 -0.0341
vn 0.0123 -0.9999 -0.0040
vn 0.0894 -0.9939 -0.0649
vn 0.0105 -0.9999 -0.0076
vn 0.0649 -0.9939 -0.0894
vn 0.0076 -0.9999 -0.0105
vn 0.0341 -0.9939 -0.1050
vn 0.0040 -0.9999 -0.0123
vn -0.0000 -0.9939 -0.1105
vn -0.0000 -0.9999 -0.0129
vn -0.0341 -0.9939 -0.1050
vn -0.0041 -0.9999 -0.0123
vn -0.0649 -0.9939 -0.0894
vn -0.0076 -0.9999 -0.0105
vn -0.0893 -0.9939 -0.0649
vn -0.0105 -0.9999 -0.0076
vn -0.1051 -0.9939 -0.0341
vn -0.0123 -0.9999 -0.0040
vn -0.1105 -0.9939 -0.0000
vn -0.0129 -0.9999 -0.0000
vn -0.0649 0.9939 0.0894
vn -0.0076 0.9999 0.0105
vn -0.0342 0.9939 0.1050
vn -0.0040 0.9999 0.0123
vn -0.0000 0.9939 0.1104
vn -0.0000 0.9999 0.0129
vn 0.0342 0.9939 0.1050
vn 0.0040 0.9999 0.0123
vn 0.0649 0.9939 0.0894
vn 0.0076 0.9999 0.0105
vn 0.0893 0.9939 0.0649
vn 0.0105 0.9999 0.0076
vn 0.1051 0.9939 0.0341
vn 0.0123 0.9999 0.0040
vn 0.1105 0.9939 -0.0001
vn 0.0130 0.9999 -0.0000
vn 0.1051 0.9939 -0.0341
vn 0.0123 0.9999 -0.0040
vn 0.0894 0.9939 -0.0649
vn 0.0105 0.9999 -0.0076
vn 0.0649 0.9939 -0.0893
vn 0.0076 0.9999 -0.0105
vn 0.0341 0.9939 -0.1050
vn 0.0040 0.9999 -0.0123
vn -0.0001 0.9939 -0.1105
vn -0.0000 0.9999 -0.0130
vn -0.0341 0.9939 -0.1050
vn -0.0040 0.9999 -0.0123
vn -0.0649 0.9939 -0.0894
vn -0.0076 0.9999 -0.0105
vn -0.0893 0.9939 -0.0650
vn -0.0105 0.9999 -0.0076
vn -0.1050 0.9939 -0.0341
vn -0.0123 0.9999 -0.0040
vn -0.1104 0.9939 -0.0000
vn -0.0130 0.9999 -0.0000
vn -0.8076 -0.0591 0.5868
vn -0.9494 -0.0591 0.3085
vn 0.9401 -0.1517 -0.3054
vn 0.7996 -0.1517 -0.5810
vn -0.5868 -0.0592 0.8076
vn -0.5869 -0.0545 0.8078
vn 0.5810 -0.1518 -0.7996
vn 0.5799 -0.1635 -0.7981
vn -0.3085 -0.0591 0.9494
vn -0.3086 -0.0544 0.9496
vn 0.3054 -0.1518 -0.9400
vn 0.3049 -0.1635 -0.9382
vn -0.0000 -0.0591 0.9983
vn -0.0000 -0.0544 0.9985
vn -0.0000 -0.1518 -0.9884
vn -0.0000 -0.1635 -0.9865
vn 0.3085 -0.0591 0.9494
vn 0.3085 -0.0544 0.9497
vn -0.3054 -0.1518 -0.9400
vn -0.3049 -0.1635 -0.9383
vn 0.5868 -0.0591 0.8076
vn 0.5869 -0.0544 0.8078
vn -0.5810 -0.1517 -0.7997
vn -0.5799 -0.1635 -0.7981
vn 0.8076 -0.0591 0.5868
vn 0.8078 -0.0544 0.5869
vn -0.7996 -0.1518 -0.5810
vn -0.7981 -0.1635 -0.5799
vn 0.9494 -0.0591 0.3085
vn 0.9496 -0.0544 0.3086
vn -0.9400 -0.1518 -0.3054
vn -0.9383 -0.1635 -0.3049
vn 0.9983 -0.0591 -0.0000
vn 0.9985 -0.0544 -0.0000
vn -0.9884 -0.1518 -0.0000
vn -0.9865 -0.1635 -0.0000
vn 0.9494 -0.0591 -0.3085
vn 0.9496 -0.0544 -0.3086
vn -0.9400 -0.1517 0.3054
vn -0.9383 -0.1635 0.3049
vn 0.8076 -0.0591 -0.5867
vn 0.8078 -0.0544 -0.5869
vn -0.7996 -0.1518 0.5810
vn -0.7981 -0.1635 0.5799
vn 0.5868 -0.0592 -0.8076
vn 0.5869 -0.0544 -0.8078
vn -0.5810 -0.1518 0.7996
vn -0.5799 -0.1635 0.7981
vn 0.3085 -0.0591 -0.9494
vn 0.3086 -0.0544 -0.9496
vn -0.3054 -0.1518 0.9400
vn -0.3049 -0.1635 0.9383
vn -0.0000 -0.0591 -0.9983
vn -0.0000 -0.0545 -0.9985
vn -0.0000 -0.1518 0.9884
vn -0.0000 -0.1635 0.9865
vn -0.3085 -0.0592 -0.9494
vn -0.3086 -0.0544 -0.9496
vn 0.3054 -0.1518 0.9400
vn 0.3049 -0.1635 0.9383
vn -0.5868 -0.0591 -0.8076
vn -0.5869 -0.0545 -0.8078
vn 0.5810 -0.1517 0.7997
vn 0.5799 -0.1635 0.7981
vn -0.8076 -0.0591 -0.5868
vn -0.8078 -0.0544 -0.5869
vn 0.7996 -0.1518 0.5810
vn 0.7981 -0.1635 0.5799
vn -0.9494 -0.0591 -0.3085
vn -0.9496 -0.0544 -0.3086
vn 0.9400 -0.1518 0.3054
vn 0.9383 -0.1635 0.3049
vn -0.9983 -0.0591 -0.0000
vn -0.9985 -0.0544 -0.0000
vn 0.9884 -0.1518 -0.0000
vn 0.9865 -0.1635 -0.0000
vn -0.9494 0.0591 0.3085
vn -0.8076 0.0591 0.5868
vn 0.7997 0.1517 -0.5810
vn 0.9400 0.1517 -0.3054
vn -0.5868 0.0592 0.8076
vn -0.5869 0.0545 0.8078
vn 0.5810 0.1518 -0.7996
vn 0.5799 0.1635 -0.7981
vn -0.3085 0.0591 0.9494
vn -0.3086 0.0544 0.9496
vn 0.3054 0.1518 -0.9400
vn 0.3048 0.1635 -0.9383
vn -0.0000 0.0591 0.9983
vn -0.0000 0.0544 0.9985
vn -0.0000 0.1518 -0.9884
vn -0.0000 0.1635 -0.9865
vn 0.3085 0.0591 0.9494
vn 0.3085 0.0544 0.9497
vn -0.3054 0.1518 -0.9400
vn -0.3049 0.1635 -0.9383
vn 0.5868 0.0591 0.8076
vn 0.5869 0.0544 0.8078
vn -0.5810 0.1518 -0.7996
vn -0.5798 0.1635 -0.7982
vn 0.8076 0.0592 0.5868
vn 0.8078 0.0544 0.5869
vn -0.7996 0.1518 -0.5810
vn -0.7981 0.1635 -0.5799
vn 0.9494 0.0591 0.3085
vn 0.9496 0.0544 0.3086
vn -0.9400 0.1518 -0.3054
vn -0.9383 0.1635 -0.3048
vn 0.9983 0.0591 -0.0000
vn 0.9985 0.0544 -0.0000
vn -0.9884 0.1518 -0.0000
vn -0.9865 0.1635 -0.0000
vn 0.9494 0.0591 -0.3085
vn 0.9496 0.0544 -0.3086
vn -0.9401 0.1517 0.3054
vn -0.9383 0.1635 0.3049
vn 0.8076 0.0591 -0.5868
vn 0.8078 0.0544 -0.5869
vn -0.7996 0.1518 0.5810
vn -0.7981 0.1635 0.5799
vn 0.5867 0.0592 -0.8076
vn 0.5869 0.0544 -0.8078
vn -0.5810 0.1518 0.7996
vn -0.5799 0.1635 0.7981
vn 0.3085 0.0591 -0.9494
vn 0.3086 0.0544 -0.9496
vn -0.3054 0.1518 0.9400
vn -0.3049 0.1635 0.9383
vn -0.0000 0.0591 -0.9983
vn -0.0000 0.0545 -0.9985
vn -0.0000 0.1518 0.9884
vn -0.0000 0.1635 0.9865
vn -0.3085 0.0592 -0.9494
vn -0.3086 0.0544 -0.9496
vn 0.3054 0.1518 0.9400
vn 0.3049 0.1635 0.9383
vn -0.5868 0.0591 -0.8076
vn -0.5869 0.0545 -0.8078
vn 0.5810 0.1517 0.7996
vn 0.5799 0.1635 0.7981
vn -0.8076 0.0591 -0.5868
vn -0.8078 0.0544 -0.5869
vn 0.7996 0.1518 0.5810
vn 0.7981 0.1635 0.5799
vn -0.9494 0.0591 -0.3085
vn -0.9496 0.0544 -0.3086
vn 0.9400 0.1518 0.3054
vn 0.9383 0.1635 0.3048
vn -0.9983 0.0591 -0.0000
vn -0.9985 0.0544 -0.0000
vn 0.9884 0.1518 -0.0000
vn 0.9865 0.1635 -0.0000
vn 0.8721 -0.3990 -0.2833
vn 0.7419 -0.3989 -0.5390
vn 0.3251 -0.9398 -0.1056
vn 0.2768 -0.9396 -0.2011
vn 0.5390 -0.3989 -0.7419
vn 0.2011 -0.9397 -0.2768
vn 0.2834 -0.3989 -0.8721
vn 0.1057 -0.9397 -0.3254
vn -0.0000 -0.3989 -0.9170
vn -0.0000 -0.9397 -0.3421
vn -0.2834 -0.3988 -0.8721
vn -0.1057 -0.9397 -0.3254
vn -0.5390 -0.3988 -0.7419
vn -0.2011 -0.9397 -0.2768
vn -0.7419 -0.3989 -0.5390
vn -0.2768 -0.9397 -0.2011
vn -0.8721 -0.3989 -0.2834
vn -0.3254 -0.9396 -0.1057
vn -0.9170 -0.3989 -0.0000
vn -0.3422 -0.9396 -0.0000
vn -0.8721 -0.3989 0.2834
vn -0.3254 -0.9396 0.1057
vn -0.7419 -0.3988 0.5390
vn -0.2768 -0.9396 0.2011
vn -0.5390 -0.3988 0.7419
vn -0.2011 -0.9397 0.2768
vn -0.2834 -0.3988 0.8721
vn -0.1057 -0.9397 0.3254
vn -0.0000 -0.3989 0.9170
vn -0.0000 -0.9397 0.3421
vn 0.2834 -0.3989 0.8721
vn 0.1057 -0.9397 0.3254
vn 0.5390 -0.3989 0.7419
vn 0.2011 -0.9397 0.2768
vn 0.7419 -0.3988 0.5390
vn 0.2768 -0.9397 0.2011
vn 0.8721 -0.3988 0.2834
vn 0.3254 -0.9397 0.1057
vn 0.9170 -0.3989 -0.0000
vn 0.3421 -0.9397 -0.0000
vn 0.8721 0.3990 -0.2833
vn 0.9170 0.3989 -0.0000
vn 0.3254 0.9396 -0.1057
vn 0.3421 0.9397 -0.0000
vn 0.2768 0.9396 -0.2011
vn 0.7419 0.3989 -0.5390
vn 0.2011 0.9397 -0.2768
vn 0.5390 0.3989 -0.7419
vn 0.1057 0.9397 -0.3254
vn 0.2834 0.3989 -0.8721
vn -0.0000 0.9397 -0.3421
vn -0.0000 0.3989 -0.9170
vn -0.1057 0.9397 -0.3254
vn -0.2834 0.3988 -0.8721
vn -0.2011 0.9397 -0.2768
vn -0.5390 0.3988 -0.7419
vn -0.2768 0.9397 -0.2011
vn -0.7419 0.3989 -0.5390
vn -0.3254 0.9396 -0.1057
vn -0.8721 0.3989 -0.2834
vn -0.3422 0.9396 -0.0000
vn -0.9170 0.3989 -0.0000
vn -0.3254 0.9396 0.1057
vn -0.8721 0.3989 0.2834
vn -0.2768 0.9396 0.2011
vn -0.7419 0.3988 0.5390
vn -0.2011 0.9397 0.2768
vn -0.5390 0.3988 0.7419
vn -0.1057 0.9397 0.3254
vn -0.2834 0.3988 0.8721
vn -0.0000 0.9397 0.3421
vn -0.0000 0.3989 0.9170
vn 0.1057 0.9397 0.3254
vn 0.2834 0.3989 0.8721
vn 0.2011 0.9397 0.2768
vn 0.5390 0.3989 0.7419
vn 0.2768 0.9397 0.2011
vn 0.7419 0.3988 0.5390
vn 0.3254 0.9397 0.1057
vn 0.8721 0.3988 0.2834
vn -0.4055 -0.9045 0.1318
vn -0.3450 -0.9045 0.2506
vn -0.8950 -0.3382 0.2908
vn -0.7614 -0.3382 0.5532
vn -0.2506 -0.9045 0.3450
vn -0.5531 -0.3382 0.7613
vn -0.1318 -0.9045 0.4056
vn -0.2908 -0.3383 0.8950
vn -0.0000 -0.9045 0.4264
vn -0.0000 -0.3383 0.9410
vn 0.1318 -0.9045 0.4055
vn 0.2908 -0.3383 0.8950
vn 0.2506 -0.9045 0.3450
vn 0.5531 -0.3383 0.7613
vn 0.3449 -0.9046 0.2506
vn 0.7613 -0.3382 0.5531
vn 0.4055 -0.9046 0.1317
vn 0.8950 -0.3382 0.2908
vn 0.4264 -0.9045 -0.0000
vn 0.9411 -0.3382 -0.0000
vn 0.4055 -0.9045 -0.1318
vn 0.8950 -0.3382 -0.2908
vn 0.3450 -0.9045 -0.2506
vn 0.7613 -0.3382 -0.5532
vn 0.2506 -0.9046 -0.3449
vn 0.5531 -0.3383 -0.7613
vn 0.1318 -0.9045 -0.4055
vn 0.2908 -0.3383 -0.8950
vn -0.0000 -0.9045 -0.4264
vn -0.0000 -0.3383 -0.9410
vn -0.1318 -0.9045 -0.4055
vn -0.2908 -0.3383 -0.8950
vn -0.2506 -0.9045 -0.3449
vn -0.5531 -0.3382 -0.7613
vn -0.3450 -0.9045 -0.2506
vn -0.7613 -0.3383 -0.5531
vn -0.4056 -0.9045 -0.1318
vn -0.8950 -0.3383 -0.2908
vn -0.4264 -0.9045 -0.0000
vn -0.9410 -0.3383 -0.0000
vn -0.4263 0.9046 -0.0000
vn -0.8950 0.3382 0.2908
vn -0.9410 0.3383 -0.0000
vn -0.7614 0.3382 0.5532
vn -0.5531 0.3382 0.7613
vn -0.2505 0.9046 0.3448
vn -0.2908 0.3383 0.8950
vn -0.1317 0.9046 0.4054
vn -0.0000 0.3383 0.9410
vn -0.0000 0.9046 0.4263
vn 0.2908 0.3383 0.8950
vn 0.1317 0.9046 0.4054
vn 0.5531 0.3383 0.7613
vn 0.2505 0.9046 0.3448
vn 0.7613 0.3382 0.5531
vn 0.3448 0.9046 0.2505
vn 0.8950 0.3382 0.2908
vn 0.4056 0.9045 0.1318
vn 0.9411 0.3382 -0.0000
vn 0.4262 0.9046 -0.0000
vn 0.8950 0.3382 -0.2908
vn 0.4054 0.9046 -0.1317
vn 0.7613 0.3382 -0.5532
vn 0.3448 0.9046 -0.2505
vn 0.5531 0.3383 -0.7613
vn 0.2505 0.9046 -0.3448
vn 0.2908 0.3383 -0.8950
vn 0.1317 0.9046 -0.4054
vn -0.0000 0.3383 -0.9410
vn -0.0000 0.9046 -0.4263
vn -0.2908 0.3383 -0.8950
vn -0.1317 0.9046 -0.4054
vn -0.5531 0.3382 -0.7613
vn -0.2505 0.9046 -0.3448
vn -0.7613 0.3383 -0.5531
vn -0.3448 0.9046 -0.2505
vn -0.8950 0.3383 -0.2908
vn -0.4054 0.9046 -0.1317
vn 0.3489 -0.9303 -0.1134
vn 0.3669 -0.9303 -0.0000
vn 0.8621 -0.4222 -0.2801
vn 0.9065 -0.4223 -0.0000
vn 0.7334 -0.4222 -0.5328
vn 0.2968 -0.9303 -0.2157
vn 0.5328 -0.4222 -0.7334
vn 0.2157 -0.9303 -0.2968
vn 0.2801 -0.4222 -0.8621
vn 0.1134 -0.9303 -0.3489
vn -0.0000 -0.4222 -0.9065
vn -0.0000 -0.9303 -0.3669
vn -0.2801 -0.4223 -0.8621
vn -0.1133 -0.9304 -0.3487
vn -0.5328 -0.4223 -0.7333
vn -0.2157 -0.9303 -0.2968
vn -0.7333 -0.4223 -0.5328
vn -0.2968 -0.9303 -0.2156
vn -0.8621 -0.4223 -0.2801
vn -0.3489 -0.9303 -0.1134
vn -0.9065 -0.4222 -0.0000
vn -0.3669 -0.9303 -0.0000
vn -0.8621 -0.4223 0.2801
vn -0.3489 -0.9303 0.1134
vn -0.7333 -0.4223 0.5328
vn -0.2968 -0.9303 0.2156
vn -0.5328 -0.4223 0.7333
vn -0.2157 -0.9303 0.2968
vn -0.2801 -0.4223 0.8621
vn -0.1134 -0.9303 0.3489
vn -0.0000 -0.4222 0.9065
vn -0.0000 -0.9303 0.3669
vn 0.2801 -0.4223 0.8621
vn 0.1134 -0.9303 0.3489
vn 0.5328 -0.4223 0.7333
vn 0.2157 -0.9303 0.2968
vn 0.7333 -0.4223 0.5328
vn 0.2968 -0.9303 0.2157
vn 0.8621 -0.4223 0.2801
vn 0.3490 -0.9303 0.1134
vn 0.3489 0.9303 -0.1134
vn 0.2968 0.9303 -0.2157
vn 0.8621 0.4222 -0.2801
vn 0.7334 0.4222 -0.5328
vn 0.2157 0.9303 -0.2968
vn 0.5328 0.4222 -0.7334
vn 0.1134 0.9303 -0.3489
vn 0.2801 0.4222 -0.8621
vn -0.0000 0.9303 -0.3669
vn -0.0000 0.4222 -0.9065
vn -0.1134 0.9303 -0.3489
vn -0.2801 0.4223 -0.8621
vn -0.2157 0.9303 -0.2968
vn -0.5328 0.4223 -0.7333
vn -0.2968 0.9303 -0.2156
vn -0.7333 0.4223 -0.5328
vn -0.3489 0.9303 -0.1134
vn -0.8621 0.4223 -0.2801
vn -0.3669 0.9303 -0.0000
vn -0.9065 0.4222 -0.0000
vn -0.3489 0.9303 0.1134
vn -0.8621 0.4223 0.2801
vn -0.2968 0.9303 0.2156
vn -0.7333 0.4223 0.5328
vn -0.2157 0.9303 0.2968
vn -0.5328 0.4223 0.7333
vn -0.1134 0.9303 0.3489
vn -0.2801 0.4223 0.8621
vn -0.0000 0.9303 0.3669
vn -0.0000 0.4222 0.9065
vn 0.1134 0.9303 0.3489
vn 0.2801 0.4223 0.8621
vn 0.2157 0.9303 0.2968
vn 0.5328 0.4223 0.7333
vn 0.2968 0.9303 0.2157
vn 0.7333 0.4223 0.5328
vn 0.3490 0.9303 0.1134
vn 0.8621 0.4223 0.2801
vn 0.3669 0.9303 -0.0000
vn 0.9065 0.4223 -0.0000
vn -0.5532 -0.3381 0.7614
vn -0.2505 -0.9046 0.3448
vn 0.1939 -0.9440 -0.2669
vn 0.5295 -0.4342 -0.7288
vn -0.2908 -0.3382 0.8950
vn -0.1317 -0.9046 0.4054
vn 0.1020 -0.9440 -0.3138
vn 0.2784 -0.4342 -0.8567
vn -0.0000 -0.3381 0.9411
vn -0.0000 -0.9046 0.4262
vn -0.0000 -0.9440 -0.3299
vn -0.0000 -0.4342 -0.9008
vn 0.2908 -0.3381 0.8950
vn 0.1317 -0.9046 0.4054
vn -0.1020 -0.9440 -0.3138
vn -0.2784 -0.4342 -0.8567
vn 0.5531 -0.3382 0.7614
vn 0.2505 -0.9046 0.3448
vn -0.1939 -0.9440 -0.2669
vn -0.5295 -0.4341 -0.7288
vn 0.7613 -0.3382 0.5532
vn 0.3448 -0.9046 0.2505
vn -0.2669 -0.9440 -0.1939
vn -0.7288 -0.4341 -0.5295
vn 0.4054 -0.9046 0.1317
vn -0.3137 -0.9440 -0.1019
vn -0.8568 -0.4341 -0.2784
vn 0.4262 -0.9046 -0.0000
vn -0.3299 -0.9440 -0.0000
vn -0.9008 -0.4342 -0.0000
vn 0.8950 -0.3383 -0.2908
vn 0.4054 -0.9046 -0.1317
vn -0.3141 -0.9439 0.1020
vn -0.8567 -0.4342 0.2784
vn 0.7613 -0.3383 -0.5532
vn 0.3448 -0.9046 -0.2505
vn -0.2669 -0.9440 0.1939
vn -0.7288 -0.4342 0.5295
vn 0.5531 -0.3382 -0.7614
vn 0.2505 -0.9046 -0.3448
vn -0.1939 -0.9440 0.2669
vn -0.5295 -0.4342 0.7288
vn 0.2908 -0.3382 -0.8950
vn 0.1317 -0.9046 -0.4054
vn -0.1019 -0.9440 0.3137
vn -0.2784 -0.4342 0.8567
vn -0.0000 -0.3382 -0.9411
vn -0.0000 -0.9046 -0.4263
vn -0.0000 -0.9440 0.3299
vn -0.0000 -0.4342 0.9008
vn -0.2908 -0.3382 -0.8950
vn -0.1317 -0.9046 -0.4054
vn 0.1019 -0.9440 0.3137
vn 0.2784 -0.4342 0.8567
vn -0.5532 -0.3381 -0.7614
vn -0.2505 -0.9046 -0.3448
vn 0.1939 -0.9440 0.2669
vn 0.5295 -0.4342 0.7288
vn -0.7614 -0.3381 -0.5532
vn -0.3448 -0.9046 -0.2505
vn 0.2669 -0.9440 0.1939
vn 0.7288 -0.4342 0.5295
vn -0.8950 -0.3381 -0.2908
vn -0.4054 -0.9046 -0.1317
vn 0.3138 -0.9440 0.1019
vn 0.8567 -0.4342 0.2784
vn -0.9411 -0.3381 -0.0000
vn -0.4262 -0.9046 -0.0000
vn 0.3299 -0.9440 -0.0000
vn 0.9008 -0.4342 -0.0000
vn -0.5532 0.3381 0.7614
vn 0.5295 0.4342 -0.7288
vn 0.1940 0.9439 -0.2671
vn -0.2908 0.3382 0.8950
vn 0.2784 0.4342 -0.8567
vn 0.1019 0.9441 -0.3136
vn -0.0000 0.9046 0.4262
vn -0.0000 0.3381 0.9411
vn -0.0000 0.4342 -0.9008
vn -0.0000 0.9439 -0.3301
vn 0.2908 0.3381 0.8950
vn -0.2784 0.4342 -0.8567
vn -0.1020 0.9439 -0.3139
vn 0.5531 0.3382 0.7614
vn -0.5295 0.4341 -0.7288
vn -0.1940 0.9439 -0.2671
vn 0.7613 0.3382 0.5532
vn -0.7288 0.4341 -0.5295
vn -0.2670 0.9440 -0.1940
vn 0.4054 0.9046 0.1317
vn -0.8568 0.4341 -0.2784
vn -0.3139 0.9440 -0.1020
vn -0.9008 0.4342 -0.0000
vn -0.3301 0.9440 -0.0000
vn 0.8950 0.3383 -0.2908
vn -0.8567 0.4342 0.2784
vn -0.3139 0.9440 0.1020
vn 0.7613 0.3383 -0.5532
vn -0.7288 0.4342 0.5295
vn -0.2670 0.9440 0.1940
vn 0.5531 0.3382 -0.7614
vn -0.5295 0.4342 0.7288
vn -0.1940 0.9440 0.2670
vn 0.2908 0.3382 -0.8950
vn -0.2784 0.4342 0.8567
vn -0.1020 0.9440 0.3139
vn -0.0000 0.3382 -0.9411
vn -0.0000 0.4342 0.9008
vn -0.0000 0.9440 0.3301
vn -0.2908 0.3382 -0.8950
vn 0.2784 0.4342 0.8567
vn 0.1020 0.9440 0.3139
vn -0.5532 0.3381 -0.7614
vn 0.5295 0.4342 0.7288
vn 0.1940 0.9440 0.2670
vn -0.7614 0.3381 -0.5532
vn 0.7288 0.4342 0.5295
vn 0.2670 0.9440 0.1940
vn -0.8950 0.3381 -0.2908
vn 0.8567 0.4342 0.2784
vn 0.3139 0.9439 0.1020
vn -0.4262 0.9046 -0.0000
vn -0.9411 0.3381 -0.0000
vn 0.9008 0.4342 -0.0000
vn 0.3301 0.9439 -0.0000
vt 0.896291 0.174296
vt 0.860780 0.104603
vt 0.860780 0.104605
vt 0.985421 0.825770
vt 0.949911 0.895461
vt 0.012304 0.414167
vt 0.032304 0.414167
vt 0.032304 0.916685
vt 0.012304 0.916685
vt 0.052304 0.414167
vt 0.052304 0.916685
vt 0.072304 0.414167
vt 0.072304 0.916685
vt 0.092304 0.414167
vt 0.092304 0.916685
vt 0.112304 0.414167
vt 0.112304 0.916685
vt 0.132304 0.414167
vt 0.132304 0.916685
vt 0.152304 0.414167
vt 0.152304 0.916685
vt 0.172304 0.414167
vt 0.172304 0.916685
vt 0.192304 0.414167
vt 0.192304 0.916685
vt 0.212304 0.414167
vt 0.212304 0.916685
vt 0.232304 0.414167
vt 0.232304 0.916685
vt 0.252304 0.414167
vt 0.252304 0.916685
vt 0.272304 0.414167
vt 0.272304 0.916685
vt 0.292304 0.414167
vt 0.292304 0.916685
vt 0.312304 0.414167
vt 0.312304 0.916685
vt 0.332304 0.414167
vt 0.332304 0.916685
vt 0.352304 0.414167
vt 0.352304 0.916685
vt 0.372304 0.414167
vt 0.372304 0.916685
vt 0.392304 0.414167
vt 0.392304 0.916685
vt 0.412304 0.414167
vt 0.412304 0.916685
vt 0.858179 0.106494
vt 0.893232 0.175289
vt 0.658526 0.251550
vt 0.803582 0.051897
vt 0.734787 0.016845
vt 0.658526 0.004766
vt 0.582265 0.016845
vt 0.513470 0.051897
vt 0.458875 0.106494
vt 0.423820 0.175289
vt 0.411742 0.251550
vt 0.423820 0.327811
vt 0.458873 0.396606
vt 0.513470 0.451203
vt 0.582265 0.486256
vt 0.658526 0.498334
vt 0.734787 0.486256
vt 0.803582 0.451203
vt 0.858179 0.396606
vt 0.893230 0.327811
vt 0.905310 0.251550
vt 0.982362 0.824777
vt 0.947309 0.893572
vt 0.747656 0.748516
vt 0.892712 0.948169
vt 0.823917 0.983221
vt 0.747656 0.995300
vt 0.671395 0.983221
vt 0.602600 0.948169
vt 0.548005 0.893572
vt 0.512951 0.824777
vt 0.500872 0.748516
vt 0.512951 0.672255
vt 0.548003 0.603460
vt 0.602600 0.548863
vt 0.671395 0.513810
vt 0.747656 0.501732
vt 0.823917 0.513810
vt 0.892712 0.548863
vt 0.947309 0.603460
vt 0.982362 0.672255
vt 0.994440 0.748516
vt 0.805473 0.049296
vt 0.735780 0.013785
vt 0.658526 0.001550
vt 0.581272 0.013785
vt 0.511580 0.049296
vt 0.456272 0.104605
vt 0.420761 0.174296
vt 0.408526 0.251550
vt 0.420761 0.328805
vt 0.456272 0.398496
vt 0.511580 0.453805
vt 0.581272 0.489315
vt 0.658526 0.501550
vt 0.735780 0.489315
vt 0.805472 0.453805
vt 0.860780 0.398496
vt 0.896291 0.328805
vt 0.908526 0.251550
vt 0.949911 0.895463
vt 0.894602 0.950770
vt 0.824911 0.986281
vt 0.747656 0.998516
vt 0.670402 0.986281
vt 0.600711 0.950770
vt 0.545402 0.895461
vt 0.509891 0.825770
vt 0.497656 0.748516
vt 0.509891 0.671261
vt 0.545402 0.601570
vt 0.600711 0.546261
vt 0.600709 0.546261
vt 0.670402 0.510751
vt 0.747656 0.498516
vt 0.824911 0.510751
vt 0.894603 0.546261
vt 0.949911 0.601569
vt 0.949911 0.601570
vt 0.985421 0.671261
vt 0.997656 0.748516
vt 0.545402 0.601569
vt 0.805472 0.049296
vt 0.012304 0.365426
vt 0.032304 0.365426
vt 0.052304 0.365426
vt 0.072304 0.365426
vt 0.092304 0.365426
vt 0.112304 0.365426
vt 0.132304 0.365426
vt 0.152304 0.365426
vt 0.172304 0.365426
vt 0.192304 0.365426
vt 0.212304 0.365426
vt 0.232304 0.365426
vt 0.252304 0.365426
vt 0.272304 0.365426
vt 0.292304 0.365426
vt 0.312304 0.365426
vt 0.332304 0.365426
vt 0.352304 0.365426
vt 0.372304 0.365426
vt 0.392304 0.365426
vt 0.412304 0.365426
vt 0.412304 0.965426
vt 0.392304 0.965426
vt 0.012304 0.965426
vt 0.032304 0.965426
vt 0.052304 0.965426
vt 0.072304 0.965426
vt 0.092304 0.965426
vt 0.112304 0.965426
vt 0.132304 0.965426
vt 0.152304 0.965426
vt 0.172304 0.965426
vt 0.192304 0.965426
vt 0.212304 0.965426
vt 0.232304 0.965426
vt 0.252304 0.965426
vt 0.272304 0.965426
vt 0.292304 0.965426
vt 0.312304 0.965426
vt 0.332304 0.965426
vt 0.352304 0.965426
vt 0.372304 0.965426
s 1
usemtl Material.001
f 365/1/1 364/1/2 367/2/3 366/3/4
s 2
f 364/1/5 363/1/6 368/3/7 367/2/8
f 371/1/9 370/1/10 373/2/11 372/2/12
s 3
f 370/1/13 369/1/14 374/3/15 373/2/16
s 4
f 485/4/17 484/4/18 487/5/19 486/5/20
s 5
f 484/4/21 483/4/22 488/5/23 487/5/24
s 4
f 491/5/25 490/5/26 493/4/27 492/4/28
s 6
f 490/5/29 489/5/30 494/4/31 493/4/32
s 7
f 3/6/33 6/7/34 66/8/35 63/9/36
f 6/7/34 9/10/37 69/11/38 66/8/35
f 9/10/37 12/12/39 72/13/40 69/11/38
f 12/12/39 15/14/41 75/15/42 72/13/40
f 15/14/41 18/16/43 78/17/44 75/15/42
f 18/16/43 21/18/45 81/19/46 78/17/44
f 21/18/45 24/20/47 84/21/48 81/19/46
f 24/20/47 27/22/49 87/23/50 84/21/48
f 27/22/49 30/24/51 90/25/52 87/23/50
f 30/24/51 33/26/53 93/27/54 90/25/52
f 33/26/53 36/28/55 96/29/56 93/27/54
f 36/28/55 39/30/57 99/31/58 96/29/56
f 39/30/57 42/32/59 102/33/60 99/31/58
f 42/32/59 45/34/61 105/35/62 102/33/60
f 45/34/61 48/36/63 108/37/64 105/35/62
f 48/36/63 51/38/65 111/39/66 108/37/64
f 51/38/65 54/40/67 114/41/68 111/39/66
f 54/40/67 57/42/69 117/43/70 114/41/68
f 57/42/69 60/44/71 120/45/72 117/43/70
f 60/44/71 3/46/33 63/47/36 120/45/72
s 8
f 246/48/73 243/49/74 1/50/75
f 249/51/76 246/48/73 1/50/75
f 252/52/77 249/51/76 1/50/75
f 255/53/78 252/52/77 1/50/75
f 258/54/79 255/53/78 1/50/75
f 261/55/80 258/54/79 1/50/75
f 264/56/81 261/55/80 1/50/75
f 267/57/82 264/56/81 1/50/75
f 270/58/83 267/57/82 1/50/75
f 273/59/84 270/58/83 1/50/75
f 276/60/85 273/59/84 1/50/75
f 279/61/86 276/60/85 1/50/75
f 282/62/87 279/61/86 1/50/75
f 285/63/88 282/62/87 1/50/75
f 288/64/89 285/63/88 1/50/75
f 291/65/90 288/64/89 1/50/75
f 294/66/91 291/65/90 1/50/75
f 297/67/92 294/66/91 1/50/75
f 300/68/93 297/67/92 1/50/75
f 243/49/74 300/68/93 1/50/75
s 9
f 303/69/94 306/70/95 2/71/96
f 306/70/95 309/72/97 2/71/96
f 309/72/97 312/73/98 2/71/96
f 312/73/98 315/74/99 2/71/96
f 315/74/99 318/75/100 2/71/96
f 318/75/100 321/76/101 2/71/96
f 321/76/101 324/77/102 2/71/96
f 324/77/102 327/78/103 2/71/96
f 327/78/103 330/79/104 2/71/96
f 330/79/104 333/80/105 2/71/96
f 333/80/105 336/81/106 2/71/96
f 336/81/106 339/82/107 2/71/96
f 339/82/107 342/83/108 2/71/96
f 342/83/108 345/84/109 2/71/96
f 345/84/109 348/85/110 2/71/96
f 348/85/110 351/86/111 2/71/96
f 351/86/111 354/87/112 2/71/96
f 354/87/112 357/88/113 2/71/96
f 357/88/113 360/89/114 2/71/96
f 360/89/114 303/69/94 2/71/96
s 10
f 8/2/115 5/1/116 123/1/117 126/2/118
f 11/90/119 8/2/115 126/2/118 129/90/120
f 14/91/121 11/90/119 129/90/120 132/91/122
f 17/92/123 14/91/121 132/91/122 135/92/124
f 20/93/125 17/92/123 135/92/124 138/93/126
f 23/94/127 20/93/125 138/93/126 141/94/128
f 26/95/129 23/94/127 141/94/128 144/95/130
f 29/96/131 26/95/129 144/95/130 147/96/132
f 32/97/133 29/96/131 147/96/132 150/97/134
f 35/98/135 32/97/133 150/97/134 153/98/136
f 38/99/137 35/98/135 153/98/136 156/99/138
f 41/100/139 38/99/137 156/99/138 159/100/140
f 44/101/141 41/100/139 159/100/140 162/101/142
f 47/102/143 44/101/141 162/101/142 165/102/144
f 50/103/145 47/102/143 165/102/144 168/103/146
f 53/104/147 50/103/145 168/103/146 171/104/148
f 56/105/149 53/104/147 171/104/148 174/105/150
f 59/106/151 56/105/149 174/105/150 177/106/152
f 62/107/153 59/106/151 177/106/152 180/107/154
f 5/1/116 62/107/153 180/107/154 123/1/117
s 11
f 65/4/155 68/5/156 186/108/157 183/4/158
f 68/5/156 71/109/159 189/109/160 186/108/157
f 71/109/159 74/110/161 192/110/162 189/109/160
f 74/110/161 77/111/163 195/111/164 192/110/162
f 77/111/163 80/112/165 198/112/166 195/111/164
f 80/112/165 83/113/167 201/113/168 198/112/166
f 83/113/167 86/114/169 204/114/170 201/113/168
f 86/114/169 89/115/171 207/115/172 204/114/170
f 89/115/171 92/116/173 210/116/174 207/115/172
f 92/116/173 95/117/175 213/117/176 210/116/174
f 95/117/175 98/118/177 216/118/178 213/117/176
f 98/118/177 101/119/179 219/120/180 216/118/178
f 101/119/179 104/121/181 222/121/182 219/120/180
f 104/121/181 107/122/183 225/122/184 222/121/182
f 107/122/183 110/123/185 228/123/186 225/122/184
f 110/123/185 113/124/187 231/124/188 228/123/186
f 113/124/187 116/125/189 234/126/190 231/124/188
f 116/125/189 119/127/191 237/127/192 234/126/190
f 119/127/191 122/128/193 240/128/194 237/127/192
f 122/128/193 65/4/155 183/4/158 240/128/194
s 2
f 368/3/7 363/1/6 371/1/9 372/2/12
f 377/90/195 368/3/7 372/2/12 378/90/196
f 383/91/197 377/90/195 378/90/196 384/91/198
f 389/92/199 383/91/197 384/91/198 390/92/200
f 395/93/201 389/92/199 390/92/200 396/93/202
f 401/94/203 395/93/201 396/93/202 402/94/204
f 407/95/205 401/94/203 402/94/204 408/95/206
f 413/96/207 407/95/205 408/95/206 414/96/208
f 419/97/209 413/96/207 414/96/208 420/97/210
f 425/98/211 419/97/209 420/97/210 426/98/212
f 431/99/213 425/98/211 426/98/212 432/99/214
f 437/100/215 431/99/213 432/99/214 438/100/216
f 443/101/217 437/100/215 438/100/216 444/101/218
f 449/102/219 443/101/217 444/101/218 450/102/220
f 455/103/221 449/102/219 450/102/220 456/103/222
f 461/104/223 455/103/221 456/103/222 462/104/224
f 467/105/225 461/104/223 462/104/224 468/105/226
f 473/106/227 467/105/225 468/105/226 474/106/228
f 479/107/229 473/106/227 474/106/228 480/107/230
f 363/1/6 479/107/229 480/107/230 371/1/9
s 4
f 485/4/17 486/5/20 491/5/25 492/4/28
f 486/5/20 495/109/231 500/109/232 491/5/25
f 495/109/231 501/110/233 506/110/234 500/109/232
f 501/110/233 507/111/235 512/111/236 506/110/234
f 507/111/235 513/112/237 518/112/238 512/111/236
f 513/112/237 519/113/239 524/113/240 518/112/238
f 519/113/239 525/114/241 530/114/242 524/113/240
f 525/114/241 531/115/243 536/115/244 530/114/242
f 531/115/243 537/116/245 542/116/246 536/115/244
f 537/116/245 543/117/247 548/117/248 542/116/246
f 543/117/247 549/118/249 554/129/250 548/117/248
f 549/118/249 555/119/251 560/119/252 554/129/250
f 555/119/251 561/121/253 566/121/254 560/119/252
f 561/121/253 567/122/255 572/122/256 566/121/254
f 567/122/255 573/123/257 578/123/258 572/122/256
f 573/123/257 579/124/259 584/124/260 578/123/258
f 579/124/259 585/125/261 590/125/262 584/124/260
f 585/125/261 591/127/263 596/127/264 590/125/262
f 591/127/263 597/128/265 602/128/266 596/127/264
f 597/128/265 485/4/17 492/4/28 602/128/266
s 1
f 128/2/267 125/1/268 365/1/1 366/3/4
s 3
f 245/1/269 248/2/270 374/3/15 369/1/14
s 1
f 131/90/271 128/2/267 366/3/4 375/90/272
s 3
f 248/2/270 251/90/273 380/130/274 374/3/15
s 1
f 134/91/275 131/90/271 375/90/272 381/91/276
s 3
f 251/90/273 254/91/277 386/91/278 380/130/274
s 1
f 137/92/279 134/91/275 381/91/276 387/92/280
s 3
f 254/91/277 257/92/281 392/92/282 386/91/278
s 1
f 140/93/283 137/92/279 387/92/280 393/93/284
s 3
f 257/92/281 260/93/285 398/93/286 392/92/282
s 1
f 143/94/287 140/93/283 393/93/284 399/94/288
s 3
f 260/93/285 263/94/289 404/94/290 398/93/286
s 1
f 146/95/291 143/94/287 399/94/288 405/95/292
s 3
f 263/94/289 266/95/293 410/95/294 404/94/290
s 1
f 149/96/295 146/95/291 405/95/292 411/96/296
s 3
f 266/95/293 269/96/297 416/96/298 410/95/294
s 1
f 152/97/299 149/96/295 411/96/296 417/97/300
s 3
f 269/96/297 272/97/301 422/97/302 416/96/298
s 1
f 155/98/303 152/97/299 417/97/300 423/98/304
s 3
f 272/97/301 275/98/305 428/98/306 422/97/302
s 1
f 158/99/307 155/98/303 423/98/304 429/99/308
s 3
f 275/98/305 278/99/309 434/99/310 428/98/306
s 1
f 161/100/311 158/99/307 429/99/308 435/100/312
s 3
f 278/99/309 281/100/313 440/100/314 434/99/310
s 1
f 164/101/315 161/100/311 435/100/312 441/101/316
s 3
f 281/100/313 284/101/317 446/101/318 440/100/314
s 1
f 167/102/319 164/101/315 441/101/316 447/102/320
s 3
f 284/101/317 287/102/321 452/102/322 446/101/318
s 1
f 170/103/323 167/102/319 447/102/320 453/103/324
s 3
f 287/102/321 290/103/325 458/103/326 452/102/322
s 1
f 173/104/327 170/103/323 453/103/324 459/104/328
s 3
f 290/103/325 293/104/329 464/104/330 458/103/326
s 1
f 176/105/331 173/104/327 459/104/328 465/105/332
s 3
f 293/104/329 296/105/333 470/105/334 464/104/330
s 1
f 179/106/335 176/105/331 465/105/332 471/106/336
s 3
f 296/105/333 299/106/337 476/106/338 470/105/334
s 1
f 182/107/339 179/106/335 471/106/336 477/107/340
s 3
f 299/106/337 302/107/341 482/107/342 476/106/338
s 1
f 125/1/268 182/107/339 477/107/340 365/1/1
s 3
f 302/107/341 245/1/269 369/1/14 482/107/342
s 5
f 185/4/343 188/5/344 488/5/23 483/4/22
s 6
f 308/5/345 305/4/346 494/4/31 489/5/30
s 5
f 188/5/344 191/109/347 497/109/348 488/5/23
s 6
f 311/109/349 308/5/345 489/5/30 498/109/350
s 5
f 191/109/347 194/110/351 503/110/352 497/109/348
s 6
f 314/110/353 311/109/349 498/109/350 504/110/354
s 5
f 194/110/351 197/111/355 509/111/356 503/110/352
s 6
f 317/111/357 314/110/353 504/110/354 510/111/358
s 5
f 197/111/355 200/112/359 515/112/360 509/111/356
s 6
f 320/112/361 317/111/357 510/111/358 516/112/362
s 5
f 200/112/359 203/113/363 521/113/364 515/112/360
s 6
f 323/113/365 320/112/361 516/112/362 522/113/366
s 5
f 203/113/363 206/114/367 527/114/368 521/113/364
s 6
f 326/114/369 323/113/365 522/113/366 528/114/370
s 5
f 206/114/367 209/115/371 533/115/372 527/114/368
s 6
f 329/115/373 326/114/369 528/114/370 534/115/374
s 5
f 209/115/371 212/116/375 539/116/376 533/115/372
s 6
f 332/116/377 329/115/373 534/115/374 540/116/378
s 5
f 212/116/375 215/117/379 545/117/380 539/116/376
s 6
f 335/117/381 332/116/377 540/116/378 546/117/382
s 5
f 215/117/379 218/118/383 551/118/384 545/117/380
s 6
f 338/118/385 335/117/381 546/117/382 552/118/386
s 5
f 218/118/383 221/119/387 557/119/388 551/118/384
s 6
f 341/119/389 338/118/385 552/118/386 558/119/390
s 5
f 221/119/387 224/121/391 563/121/392 557/119/388
s 6
f 344/121/393 341/119/389 558/119/390 564/121/394
s 5
f 224/121/391 227/122/395 569/122/396 563/121/392
s 6
f 347/122/397 344/121/393 564/121/394 570/122/398
s 5
f 227/122/395 230/123/399 575/123/400 569/122/396
s 6
f 350/123/401 347/122/397 570/122/398 576/123/402
s 5
f 230/123/399 233/124/403 581/124/404 575/123/400
s 6
f 353/124/405 350/123/401 576/123/402 582/124/406
s 5
f 233/124/403 236/125/407 587/125/408 581/124/404
s 6
f 356/125/409 353/124/405 582/124/406 588/125/410
s 5
f 236/125/407 239/127/411 593/127/412 587/125/408
s 6
f 359/127/413 356/125/409 588/125/410 594/127/414
s 5
f 239/127/411 242/128/415 599/128/416 593/127/412
s 6
f 362/128/417 359/127/413 594/127/414 600/128/418
s 5
f 242/128/415 185/4/343 483/4/22 599/128/416
s 6
f 305/4/346 362/128/417 600/128/418 494/4/31
s 7
f 3/6/33 4/131/419 7/132/420 6/7/34
s 10
f 4/1/421 5/1/116 8/2/115 7/2/422
s 7
f 6/7/34 7/132/420 10/133/423 9/10/37
s 10
f 7/2/422 8/2/115 11/90/119 10/90/424
s 7
f 9/10/37 10/133/423 13/134/425 12/12/39
s 10
f 10/90/424 11/90/119 14/91/121 13/91/426
s 7
f 12/12/39 13/134/425 16/135/427 15/14/41
s 10
f 13/91/426 14/91/121 17/92/123 16/92/428
s 7
f 15/14/41 16/135/427 19/136/429 18/16/43
s 10
f 16/92/428 17/92/123 20/93/125 19/93/430
s 7
f 18/16/43 19/136/429 22/137/431 21/18/45
s 10
f 19/93/430 20/93/125 23/94/127 22/94/432
s 7
f 21/18/45 22/137/431 25/138/433 24/20/47
s 10
f 22/94/432 23/94/127 26/95/129 25/95/434
s 7
f 24/20/47 25/138/433 28/139/435 27/22/49
s 10
f 25/95/434 26/95/129 29/96/131 28/96/436
s 7
f 27/22/49 28/139/435 31/140/437 30/24/51
s 10
f 28/96/436 29/96/131 32/97/133 31/97/438
s 7
f 30/24/51 31/140/437 34/141/439 33/26/53
s 10
f 31/97/438 32/97/133 35/98/135 34/98/440
s 7
f 33/26/53 34/141/439 37/142/441 36/28/55
s 10
f 34/98/440 35/98/135 38/99/137 37/99/442
s 7
f 36/28/55 37/142/441 40/143/443 39/30/57
s 10
f 37/99/442 38/99/137 41/100/139 40/100/444
s 7
f 39/30/57 40/143/443 43/144/445 42/32/59
s 10
f 40/100/444 41/100/139 44/101/141 43/101/446
s 7
f 42/32/59 43/144/445 46/145/447 45/34/61
s 10
f 43/101/446 44/101/141 47/102/143 46/102/448
s 7
f 45/34/61 46/145/447 49/146/449 48/36/63
s 10
f 46/102/448 47/102/143 50/103/145 49/103/450
s 7
f 48/36/63 49/146/449 52/147/451 51/38/65
s 10
f 49/103/450 50/103/145 53/104/147 52/104/452
s 7
f 51/38/65 52/147/451 55/148/453 54/40/67
s 10
f 52/104/452 53/104/147 56/105/149 55/105/454
s 7
f 54/40/67 55/148/453 58/149/455 57/42/69
s 10
f 55/105/454 56/105/149 59/106/151 58/106/456
s 7
f 57/42/69 58/149/455 61/150/457 60/44/71
s 10
f 58/106/456 59/106/151 62/107/153 61/107/458
f 5/1/116 4/1/421 61/107/458 62/107/153
s 7
f 4/151/419 3/46/33 60/44/71 61/150/457
f 63/47/36 64/152/459 121/153/460 120/45/72
s 11
f 64/4/461 65/4/155 122/128/193 121/128/462
f 65/4/155 64/4/461 67/5/463 68/5/156
s 7
f 64/154/459 63/9/36 66/8/35 67/155/464
s 11
f 68/5/156 67/5/463 70/109/465 71/109/159
s 7
f 67/155/464 66/8/35 69/11/38 70/156/466
s 11
f 71/109/159 70/109/465 73/110/467 74/110/161
s 7
f 70/156/466 69/11/38 72/13/40 73/157/468
s 11
f 74/110/161 73/110/467 76/111/469 77/111/163
s 7
f 73/157/468 72/13/40 75/15/42 76/158/470
s 11
f 77/111/163 76/111/469 79/112/471 80/112/165
s 7
f 76/158/470 75/15/42 78/17/44 79/159/472
s 11
f 80/112/165 79/112/471 82/113/473 83/113/167
s 7
f 79/159/472 78/17/44 81/19/46 82/160/474
s 11
f 83/113/167 82/113/473 85/114/475 86/114/169
s 7
f 82/160/474 81/19/46 84/21/48 85/161/476
s 11
f 86/114/169 85/114/475 88/115/477 89/115/171
s 7
f 85/161/476 84/21/48 87/23/50 88/162/478
s 11
f 89/115/171 88/115/477 91/116/479 92/116/173
s 7
f 88/162/478 87/23/50 90/25/52 91/163/480
s 11
f 92/116/173 91/116/479 94/117/481 95/117/175
s 7
f 91/163/480 90/25/52 93/27/54 94/164/482
s 11
f 95/117/175 94/117/481 97/118/483 98/118/177
s 7
f 94/164/482 93/27/54 96/29/56 97/165/484
s 11
f 98/118/177 97/118/483 100/119/485 101/119/179
s 7
f 97/165/484 96/29/56 99/31/58 100/166/486
s 11
f 101/119/179 100/119/485 103/121/487 104/121/181
s 7
f 100/166/486 99/31/58 102/33/60 103/167/488
s 11
f 104/121/181 103/121/487 106/122/489 107/122/183
s 7
f 103/167/488 102/33/60 105/35/62 106/168/490
s 11
f 107/122/183 106/122/489 109/123/491 110/123/185
s 7
f 106/168/490 105/35/62 108/37/64 109/169/492
s 11
f 110/123/185 109/123/491 112/124/493 113/124/187
s 7
f 109/169/492 108/37/64 111/39/66 112/170/494
s 11
f 113/124/187 112/124/493 115/125/495 116/125/189
s 7
f 112/170/494 111/39/66 114/41/68 115/171/496
s 11
f 116/125/189 115/125/495 118/127/497 119/127/191
s 7
f 115/171/496 114/41/68 117/43/70 118/172/498
s 11
f 119/127/191 118/127/497 121/128/462 122/128/193
s 7
f 118/172/498 117/43/70 120/45/72 121/153/460
s 10
f 123/1/117 124/1/499 127/2/500 126/2/118
s 1
f 124/1/501 125/1/268 128/2/267 127/2/502
s 10
f 126/2/118 127/2/500 130/90/503 129/90/120
s 1
f 127/2/502 128/2/267 131/90/271 130/90/504
s 10
f 129/90/120 130/90/503 133/91/505 132/91/122
s 1
f 130/90/504 131/90/271 134/91/275 133/91/506
s 10
f 132/91/122 133/91/505 136/92/507 135/92/124
s 1
f 133/91/506 134/91/275 137/92/279 136/92/508
s 10
f 135/92/124 136/92/507 139/93/509 138/93/126
s 1
f 136/92/508 137/92/279 140/93/283 139/93/510
s 10
f 138/93/126 139/93/509 142/94/511 141/94/128
s 1
f 139/93/510 140/93/283 143/94/287 142/94/512
s 10
f 141/94/128 142/94/511 145/95/513 144/95/130
s 1
f 142/94/512 143/94/287 146/95/291 145/95/514
s 10
f 144/95/130 145/95/513 148/96/515 147/96/132
s 1
f 145/95/514 146/95/291 149/96/295 148/96/516
s 10
f 147/96/132 148/96/515 151/97/517 150/97/134
s 1
f 148/96/516 149/96/295 152/97/299 151/97/518
s 10
f 150/97/134 151/97/517 154/98/519 153/98/136
s 1
f 151/97/518 152/97/299 155/98/303 154/98/520
s 10
f 153/98/136 154/98/519 157/99/521 156/99/138
s 1
f 154/98/520 155/98/303 158/99/307 157/99/522
s 10
f 156/99/138 157/99/521 160/100/523 159/100/140
s 1
f 157/99/522 158/99/307 161/100/311 160/100/524
s 10
f 159/100/140 160/100/523 163/101/525 162/101/142
s 1
f 160/100/524 161/100/311 164/101/315 163/101/526
s 10
f 162/101/142 163/101/525 166/102/527 165/102/144
s 1
f 163/101/526 164/101/315 167/102/319 166/102/528
s 10
f 165/102/144 166/102/527 169/103/529 168/103/146
s 1
f 166/102/528 167/102/319 170/103/323 169/103/530
s 10
f 168/103/146 169/103/529 172/104/531 171/104/148
s 1
f 169/103/530 170/103/323 173/104/327 172/104/532
s 10
f 171/104/148 172/104/531 175/105/533 174/105/150
s 1
f 172/104/532 173/104/327 176/105/331 175/105/534
s 10
f 174/105/150 175/105/533 178/106/535 177/106/152
s 1
f 175/105/534 176/105/331 179/106/335 178/106/536
s 10
f 177/106/152 178/106/535 181/107/537 180/107/154
s 1
f 178/106/536 179/106/335 182/107/339 181/107/538
f 125/1/268 124/1/501 181/107/538 182/107/339
s 10
f 124/1/499 123/1/117 180/107/154 181/107/537
s 11
f 183/4/158 184/4/18 241/128/539 240/128/194
s 5
f 184/4/540 185/4/343 242/128/415 241/128/541
f 185/4/343 184/4/540 187/5/542 188/5/344
s 11
f 184/4/18 183/4/158 186/108/157 187/5/19
s 5
f 188/5/344 187/5/542 190/109/543 191/109/347
s 11
f 187/5/19 186/108/157 189/109/160 190/109/544
s 5
f 191/109/347 190/109/543 193/110/545 194/110/351
s 11
f 190/109/544 189/109/160 192/110/162 193/110/546
s 5
f 194/110/351 193/110/545 196/111/547 197/111/355
s 11
f 193/110/546 192/110/162 195/111/164 196/111/548
s 5
f 197/111/355 196/111/547 199/112/549 200/112/359
s 11
f 196/111/548 195/111/164 198/112/166 199/112/550
s 5
f 200/112/359 199/112/549 202/113/551 203/113/363
s 11
f 199/112/550 198/112/166 201/113/168 202/113/552
s 5
f 203/113/363 202/113/551 205/114/553 206/114/367
s 11
f 202/113/552 201/113/168 204/114/170 205/114/554
s 5
f 206/114/367 205/114/553 208/115/555 209/115/371
s 11
f 205/114/554 204/114/170 207/115/172 208/115/556
s 5
f 209/115/371 208/115/555 211/116/557 212/116/375
s 11
f 208/115/556 207/115/172 210/116/174 211/116/558
s 5
f 212/116/375 211/116/557 214/117/559 215/117/379
s 11
f 211/116/558 210/116/174 213/117/176 214/117/560
s 5
f 215/117/379 214/117/559 217/118/561 218/118/383
s 11
f 214/117/560 213/117/176 216/118/178 217/118/562
s 5
f 218/118/383 217/118/561 220/119/563 221/119/387
s 11
f 217/118/562 216/118/178 219/120/180 220/119/564
s 5
f 221/119/387 220/119/563 223/121/565 224/121/391
s 11
f 220/119/564 219/120/180 222/121/182 223/121/566
s 5
f 224/121/391 223/121/565 226/122/567 227/122/395
s 11
f 223/121/566 222/121/182 225/122/184 226/122/568
s 5
f 227/122/395 226/122/567 229/123/569 230/123/399
s 11
f 226/122/568 225/122/184 228/123/186 229/123/570
s 5
f 230/123/399 229/123/569 232/124/571 233/124/403
s 11
f 229/123/570 228/123/186 231/124/188 232/124/572
s 5
f 233/124/403 232/124/571 235/125/573 236/125/407
s 11
f 232/124/572 231/124/188 234/126/190 235/125/574
s 5
f 236/125/407 235/125/573 238/127/575 239/127/411
s 11
f 235/125/574 234/126/190 237/127/192 238/127/576
s 5
f 239/127/411 238/127/575 241/128/541 242/128/415
s 11
f 238/127/576 237/127/192 240/128/194 241/128/539
s 8
f 243/49/74 244/1/577 301/107/578 300/68/93
s 3
f 244/1/579 245/1/269 302/107/341 301/107/580
f 245/1/269 244/1/579 247/2/581 248/2/270
s 8
f 244/1/577 243/49/74 246/48/73 247/2/582
s 3
f 248/2/270 247/2/581 250/90/583 251/90/273
s 8
f 247/2/582 246/48/73 249/51/76 250/90/584
s 3
f 251/90/273 250/90/583 253/91/585 254/91/277
s 8
f 250/90/584 249/51/76 252/52/77 253/91/586
s 3
f 254/91/277 253/91/585 256/92/587 257/92/281
s 8
f 253/91/586 252/52/77 255/53/78 256/92/588
s 3
f 257/92/281 256/92/587 259/93/589 260/93/285
s 8
f 256/92/588 255/53/78 258/54/79 259/93/590
s 3
f 260/93/285 259/93/589 262/94/591 263/94/289
s 8
f 259/93/590 258/54/79 261/55/80 262/94/592
s 3
f 263/94/289 262/94/591 265/95/593 266/95/293
s 8
f 262/94/592 261/55/80 264/56/81 265/95/594
s 3
f 266/95/293 265/95/593 268/96/595 269/96/297
s 8
f 265/95/594 264/56/81 267/57/82 268/96/596
s 3
f 269/96/297 268/96/595 271/97/597 272/97/301
s 8
f 268/96/596 267/57/82 270/58/83 271/97/598
s 3
f 272/97/301 271/97/597 274/98/599 275/98/305
s 8
f 271/97/598 270/58/83 273/59/84 274/98/600
s 3
f 275/98/305 274/98/599 277/99/601 278/99/309
s 8
f 274/98/600 273/59/84 276/60/85 277/99/602
s 3
f 278/99/309 277/99/601 280/100/603 281/100/313
s 8
f 277/99/602 276/60/85 279/61/86 280/100/604
s 3
f 281/100/313 280/100/603 283/101/605 284/101/317
s 8
f 280/100/604 279/61/86 282/62/87 283/101/606
s 3
f 284/101/317 283/101/605 286/102/607 287/102/321
s 8
f 283/101/606 282/62/87 285/63/88 286/102/608
s 3
f 287/102/321 286/102/607 289/103/609 290/103/325
s 8
f 286/102/608 285/63/88 288/64/89 289/103/610
s 3
f 290/103/325 289/103/609 292/104/611 293/104/329
s 8
f 289/103/610 288/64/89 291/65/90 292/104/612
s 3
f 293/104/329 292/104/611 295/105/613 296/105/333
s 8
f 292/104/612 291/65/90 294/66/91 295/105/614
s 3
f 296/105/333 295/105/613 298/106/615 299/106/337
s 8
f 295/105/614 294/66/91 297/67/92 298/106/616
s 3
f 299/106/337 298/106/615 301/107/580 302/107/341
s 8
f 298/106/616 297/67/92 300/68/93 301/107/578
s 9
f 303/69/94 304/4/617 307/5/618 306/70/95
s 6
f 304/4/619 305/4/346 308/5/345 307/5/620
s 9
f 306/70/95 307/5/618 310/109/621 309/72/97
s 6
f 307/5/620 308/5/345 311/109/349 310/109/622
s 9
f 309/72/97 310/109/621 313/110/623 312/73/98
s 6
f 310/109/622 311/109/349 314/110/353 313/110/624
s 9
f 312/73/98 313/110/623 316/111/625 315/74/99
s 6
f 313/110/624 314/110/353 317/111/357 316/111/626
s 9
f 315/74/99 316/111/625 319/112/627 318/75/100
s 6
f 316/111/626 317/111/357 320/112/361 319/112/628
s 9
f 318/75/100 319/112/627 322/113/629 321/76/101
s 6
f 319/112/628 320/112/361 323/113/365 322/113/630
s 9
f 321/76/101 322/113/629 325/114/631 324/77/102
s 6
f 322/113/630 323/113/365 326/114/369 325/114/632
s 9
f 324/77/102 325/114/631 328/115/633 327/78/103
s 6
f 325/114/632 326/114/369 329/115/373 328/115/634
s 9
f 327/78/103 328/115/633 331/116/635 330/79/104
s 6
f 328/115/634 329/115/373 332/116/377 331/116/636
s 9
f 330/79/104 331/116/635 334/117/637 333/80/105
s 6
f 331/116/636 332/116/377 335/117/381 334/117/638
s 9
f 333/80/105 334/117/637 337/118/639 336/81/106
s 6
f 334/117/638 335/117/381 338/118/385 337/118/640
s 9
f 336/81/106 337/118/639 340/119/641 339/82/107
s 6
f 337/118/640 338/118/385 341/119/389 340/119/642
s 9
f 339/82/107 340/119/641 343/121/643 342/83/108
s 6
f 340/119/642 341/119/389 344/121/393 343/121/644
s 9
f 342/83/108 343/121/643 346/122/645 345/84/109
s 6
f 343/121/644 344/121/393 347/122/397 346/122/646
s 9
f 345/84/109 346/122/645 349/123/647 348/85/110
s 6
f 346/122/646 347/122/397 350/123/401 349/123/648
s 9
f 348/85/110 349/123/647 352/124/649 351/86/111
s 6
f 349/123/648 350/123/401 353/124/405 352/124/650
s 9
f 351/86/111 352/124/649 355/125/651 354/87/112
s 6
f 352/124/650 353/124/405 356/125/409 355/125/652
s 9
f 354/87/112 355/125/651 358/127/653 357/88/113
s 6
f 355/125/652 356/125/409 359/127/413 358/127/654
s 9
f 357/88/113 358/127/653 361/128/655 360/89/114
s 6
f 358/127/654 359/127/413 362/128/417 361/128/656
f 305/4/346 304/4/619 361/128/656 362/128/417
s 9
f 304/4/617 303/69/94 360/89/114 361/128/655
s 1
f 366/3/4 367/2/3 376/90/657 375/90/272
s 2
f 367/2/8 368/3/7 377/90/195 376/90/658
f 372/2/12 373/2/11 379/90/659 378/90/196
s 3
f 373/2/16 374/3/15 380/130/274 379/90/660
s 1
f 375/90/272 376/90/657 382/91/661 381/91/276
s 2
f 376/90/658 377/90/195 383/91/197 382/91/662
f 378/90/196 379/90/659 385/91/663 384/91/198
s 3
f 379/90/660 380/130/274 386/91/278 385/91/664
s 1
f 381/91/276 382/91/661 388/92/665 387/92/280
s 2
f 382/91/662 383/91/197 389/92/199 388/92/666
f 384/91/198 385/91/663 391/92/667 390/92/200
s 3
f 385/91/664 386/91/278 392/92/282 391/92/668
s 1
f 387/92/280 388/92/665 394/93/669 393/93/284
s 2
f 388/92/666 389/92/199 395/93/201 394/93/670
f 390/92/200 391/92/667 397/93/671 396/93/202
s 3
f 391/92/668 392/92/282 398/93/286 397/93/672
s 1
f 393/93/284 394/93/669 400/94/673 399/94/288
s 2
f 394/93/670 395/93/201 401/94/203 400/94/674
f 396/93/202 397/93/671 403/94/675 402/94/204
s 3
f 397/93/672 398/93/286 404/94/290 403/94/676
s 1
f 399/94/288 400/94/673 406/95/677 405/95/292
s 2
f 400/94/674 401/94/203 407/95/205 406/95/678
f 402/94/204 403/94/675 409/95/679 408/95/206
s 3
f 403/94/676 404/94/290 410/95/294 409/95/680
s 1
f 405/95/292 406/95/677 412/96/516 411/96/296
s 2
f 406/95/678 407/95/205 413/96/207 412/96/681
f 408/95/206 409/95/679 415/96/682 414/96/208
s 3
f 409/95/680 410/95/294 416/96/298 415/96/683
s 1
f 411/96/296 412/96/516 418/97/518 417/97/300
s 2
f 412/96/681 413/96/207 419/97/209 418/97/684
f 414/96/208 415/96/682 421/97/685 420/97/210
s 3
f 415/96/683 416/96/298 422/97/302 421/97/686
s 1
f 417/97/300 418/97/518 424/98/687 423/98/304
s 2
f 418/97/684 419/97/209 425/98/211 424/98/688
f 420/97/210 421/97/685 427/98/689 426/98/212
s 3
f 421/97/686 422/97/302 428/98/306 427/98/690
s 1
f 423/98/304 424/98/687 430/99/691 429/99/308
s 2
f 424/98/688 425/98/211 431/99/213 430/99/692
f 426/98/212 427/98/689 433/99/693 432/99/214
s 3
f 427/98/690 428/98/306 434/99/310 433/99/694
s 1
f 429/99/308 430/99/691 436/100/695 435/100/312
s 2
f 430/99/692 431/99/213 437/100/215 436/100/696
f 432/99/214 433/99/693 439/100/697 438/100/216
s 3
f 433/99/694 434/99/310 440/100/314 439/100/698
s 1
f 435/100/312 436/100/695 442/101/699 441/101/316
s 2
f 436/100/696 437/100/215 443/101/217 442/101/700
f 438/100/216 439/100/697 445/101/701 444/101/218
s 3
f 439/100/698 440/100/314 446/101/318 445/101/702
s 1
f 441/101/316 442/101/699 448/102/703 447/102/320
s 2
f 442/101/700 443/101/217 449/102/219 448/102/704
f 444/101/218 445/101/701 451/102/705 450/102/220
s 3
f 445/101/702 446/101/318 452/102/322 451/102/706
s 1
f 447/102/320 448/102/703 454/103/707 453/103/324
s 2
f 448/102/704 449/102/219 455/103/221 454/103/708
f 450/102/220 451/102/705 457/103/709 456/103/222
s 3
f 451/102/706 452/102/322 458/103/326 457/103/710
s 1
f 453/103/324 454/103/707 460/104/711 459/104/328
s 2
f 454/103/708 455/103/221 461/104/223 460/104/712
f 456/103/222 457/103/709 463/104/713 462/104/224
s 3
f 457/103/710 458/103/326 464/104/330 463/104/714
s 1
f 459/104/328 460/104/711 466/105/715 465/105/332
s 2
f 460/104/712 461/104/223 467/105/225 466/105/716
f 462/104/224 463/104/713 469/105/717 468/105/226
s 3
f 463/104/714 464/104/330 470/105/334 469/105/718
s 1
f 465/105/332 466/105/715 472/106/719 471/106/336
s 2
f 466/105/716 467/105/225 473/106/227 472/106/720
f 468/105/226 469/105/717 475/106/721 474/106/228
s 3
f 469/105/718 470/105/334 476/106/338 475/106/722
s 1
f 471/106/336 472/106/719 478/107/723 477/107/340
s 2
f 472/106/720 473/106/227 479/107/229 478/107/724
f 474/106/228 475/106/721 481/107/725 480/107/230
s 3
f 475/106/722 476/106/338 482/107/342 481/107/726
s 2
f 363/1/6 364/1/5 478/107/724 479/107/229
s 1
f 364/1/2 365/1/1 477/107/340 478/107/723
s 3
f 369/1/14 370/1/13 481/107/726 482/107/342
s 2
f 370/1/10 371/1/9 480/107/230 481/107/725
s 4
f 486/5/20 487/5/19 496/109/544 495/109/231
s 5
f 487/5/24 488/5/23 497/109/348 496/109/727
s 6
f 489/5/30 490/5/29 499/109/728 498/109/350
s 4
f 490/5/26 491/5/25 500/109/232 499/109/729
f 495/109/231 496/109/544 502/110/546 501/110/233
s 5
f 496/109/727 497/109/348 503/110/352 502/110/730
s 6
f 498/109/350 499/109/728 505/110/731 504/110/354
s 4
f 499/109/729 500/109/232 506/110/234 505/110/732
f 501/110/233 502/110/546 508/111/733 507/111/235
s 5
f 502/110/730 503/110/352 509/111/356 508/111/734
s 6
f 504/110/354 505/110/731 511/111/735 510/111/358
s 4
f 505/110/732 506/110/234 512/111/236 511/111/736
f 507/111/235 508/111/733 514/112/550 513/112/237
s 5
f 508/111/734 509/111/356 515/112/360 514/112/737
s 6
f 510/111/358 511/111/735 517/112/738 516/112/362
s 4
f 511/111/736 512/111/236 518/112/238 517/112/739
f 513/112/237 514/112/550 520/113/552 519/113/239
s 5
f 514/112/737 515/112/360 521/113/364 520/113/740
s 6
f 516/112/362 517/112/738 523/113/741 522/113/366
s 4
f 517/112/739 518/112/238 524/113/240 523/113/742
f 519/113/239 520/113/552 526/114/554 525/114/241
s 5
f 520/113/740 521/113/364 527/114/368 526/114/743
s 6
f 522/113/366 523/113/741 529/114/744 528/114/370
s 4
f 523/113/742 524/113/240 530/114/242 529/114/745
f 525/114/241 526/114/554 532/115/746 531/115/243
s 5
f 526/114/743 527/114/368 533/115/372 532/115/555
s 6
f 528/114/370 529/114/744 535/115/747 534/115/374
s 4
f 529/114/745 530/114/242 536/115/244 535/115/748
f 531/115/243 532/115/746 538/116/558 537/116/245
s 5
f 532/115/555 533/115/372 539/116/376 538/116/557
s 6
f 534/115/374 535/115/747 541/116/749 540/116/378
s 4
f 535/115/748 536/115/244 542/116/246 541/116/750
f 537/116/245 538/116/558 544/117/560 543/117/247
s 5
f 538/116/557 539/116/376 545/117/380 544/117/751
s 6
f 540/116/378 541/116/749 547/117/752 546/117/382
s 4
f 541/116/750 542/116/246 548/117/248 547/117/753
f 543/117/247 544/117/560 550/118/562 549/118/249
s 5
f 544/117/751 545/117/380 551/118/384 550/118/754
s 6
f 546/117/382 547/117/752 553/118/755 552/118/386
s 4
f 547/117/753 548/117/248 554/129/250 553/118/756
f 549/118/249 550/118/562 556/119/564 555/119/251
s 5
f 550/118/754 551/118/384 557/119/388 556/119/757
s 6
f 552/118/386 553/118/755 559/119/758 558/119/390
s 4
f 553/118/756 554/129/250 560/119/252 559/119/759
f 555/119/251 556/119/564 562/121/566 561/121/253
s 5
f 556/119/757 557/119/388 563/121/392 562/121/760
s 6
f 558/119/390 559/119/758 565/121/761 564/121/394
s 4
f 559/119/759 560/119/252 566/121/254 565/121/762
f 561/121/253 562/121/566 568/122/568 567/122/255
s 5
f 562/121/760 563/121/392 569/122/396 568/122/763
s 6
f 564/121/394 565/121/761 571/122/764 570/122/398
s 4
f 565/121/762 566/121/254 572/122/256 571/122/765
f 567/122/255 568/122/568 574/123/570 573/123/257
s 5
f 568/122/763 569/122/396 575/123/400 574/123/766
s 6
f 570/122/398 571/122/764 577/123/767 576/123/402
s 4
f 571/122/765 572/122/256 578/123/258 577/123/768
f 573/123/257 574/123/570 580/124/572 579/124/259
s 5
f 574/123/766 575/123/400 581/124/404 580/124/769
s 6
f 576/123/402 577/123/767 583/124/770 582/124/406
s 4
f 577/123/768 578/123/258 584/124/260 583/124/771
f 579/124/259 580/124/572 586/125/574 585/125/261
s 5
f 580/124/769 581/124/404 587/125/408 586/125/772
s 6
f 582/124/406 583/124/770 589/125/773 588/125/410
s 4
f 583/124/771 584/124/260 590/125/262 589/125/774
f 585/125/261 586/125/574 592/127/576 591/127/263
s 5
f 586/125/772 587/125/408 593/127/412 592/127/775
s 6
f 588/125/410 589/125/773 595/127/776 594/127/414
s 4
f 589/125/774 590/125/262 596/127/264 595/127/777
f 591/127/263 592/127/576 598/128/778 597/128/265
s 5
f 592/127/775 593/127/412 599/128/416 598/128/779
s 6
f 594/127/414 595/127/776 601/128/780 600/128/418
s 4
f 595/127/777 596/127/264 602/128/266 601/128/781
s 5
f 483/4/22 484/4/21 598/128/779 599/128/416
s 4
f 484/4/18 485/4/17 597/128/265 598/128/778
f 492/4/28 493/4/27 601/128/781 602/128/266
s 6
f 493/4/32 494/4/31 600/128/418 601/128/780
